<svg width="161" height="80" viewBox="0 0 161 80" fill="none" xmlns="http://www.w3.org/2000/svg">
<g clip-path="url(#clip0_1_331)">
<path d="M57.066 46.992C57.11 47.102 57.132 47.267 57.132 47.487C57.132 47.685 57.132 47.85 57.132 47.982C57.132 48.158 57.099 48.323 57.033 48.477C56.967 48.631 56.879 48.774 56.769 48.906C56.571 49.17 56.285 49.368 55.911 49.5C55.383 49.676 54.888 49.764 54.426 49.764C54.184 49.786 53.931 49.797 53.667 49.797C53.403 49.797 53.139 49.819 52.875 49.863H52.743C51.049 49.885 49.3 49.885 47.496 49.863C47.056 49.841 46.561 49.841 46.011 49.863C45.461 49.907 44.922 49.896 44.394 49.83C43.866 49.786 43.382 49.665 42.942 49.467C42.524 49.247 42.227 48.906 42.051 48.444C42.007 48.334 41.974 48.235 41.952 48.147C41.93 48.037 41.919 47.927 41.919 47.817C41.831 47.069 41.798 46.332 41.82 45.606C41.842 44.88 41.853 44.165 41.853 43.461L41.919 38.676V34.254C41.919 33.462 41.919 32.758 41.919 32.142C41.941 31.526 41.963 30.844 41.985 30.096V29.931C42.007 29.711 42.018 29.491 42.018 29.271C42.04 29.051 42.051 28.831 42.051 28.611C42.095 28.105 42.216 27.676 42.414 27.324C42.546 26.994 42.777 26.73 43.107 26.532C43.393 26.334 43.734 26.235 44.13 26.235C44.284 26.235 44.427 26.246 44.559 26.268C44.713 26.268 44.856 26.279 44.988 26.301C45.12 26.323 45.241 26.367 45.351 26.433C45.483 26.499 45.615 26.587 45.747 26.697C45.879 26.851 46 27.038 46.11 27.258C46.198 27.5 46.253 27.742 46.275 27.984C46.297 28.138 46.319 28.281 46.341 28.413C46.363 28.545 46.374 28.677 46.374 28.809C46.33 28.941 46.308 29.073 46.308 29.205C46.308 29.337 46.308 29.458 46.308 29.568V30.162L46.176 45.705L52.71 45.771H54.261C54.393 45.771 54.536 45.782 54.69 45.804C54.844 45.804 54.998 45.815 55.152 45.837C55.328 45.859 55.482 45.881 55.614 45.903C55.746 45.925 55.878 45.958 56.01 46.002C56.252 46.068 56.45 46.178 56.604 46.332C56.846 46.552 57 46.772 57.066 46.992ZM65.587 34.584C66.313 34.232 67.072 33.979 67.864 33.825C68.656 33.671 69.437 33.638 70.207 33.726C70.999 33.814 71.758 34.023 72.484 34.353C73.232 34.683 73.914 35.145 74.53 35.739C75.036 36.245 75.476 36.861 75.85 37.587C76.224 38.291 76.499 38.984 76.675 39.666C77.049 40.876 77.104 42.097 76.84 43.329C76.576 44.561 76.125 45.705 75.487 46.761C75.179 47.245 74.794 47.685 74.332 48.081C73.892 48.455 73.419 48.763 72.913 49.005C72.253 49.313 71.538 49.522 70.768 49.632C69.998 49.764 69.25 49.797 68.524 49.731C67.204 49.665 66.038 49.335 65.026 48.741C64.036 48.147 63.233 47.388 62.617 46.464C62.023 45.54 61.627 44.495 61.429 43.329C61.253 42.141 61.33 40.931 61.66 39.699C62.012 38.379 62.518 37.312 63.178 36.498C63.86 35.662 64.663 35.024 65.587 34.584ZM66.577 39.006C66.247 39.314 65.994 39.699 65.818 40.161C65.642 40.623 65.532 41.107 65.488 41.613C65.444 42.097 65.477 42.592 65.587 43.098C65.719 43.582 65.917 44.022 66.181 44.418C66.401 44.748 66.797 45.023 67.369 45.243C67.941 45.463 68.535 45.595 69.151 45.639C69.855 45.683 70.471 45.496 70.999 45.078C71.527 44.638 71.923 44.099 72.187 43.461C72.473 42.823 72.605 42.13 72.583 41.382C72.561 40.634 72.363 39.952 71.989 39.336C71.725 38.896 71.351 38.577 70.867 38.379C70.405 38.159 69.91 38.049 69.382 38.049C68.876 38.027 68.37 38.104 67.864 38.28C67.358 38.434 66.929 38.676 66.577 39.006ZM96.6296 43.263C96.6296 43.967 96.6076 44.726 96.5636 45.54C96.5416 46.354 96.5086 47.113 96.4646 47.817C96.4646 48.477 96.4316 49.137 96.3656 49.797C96.3216 50.369 96.2336 50.985 96.1016 51.645C95.9696 52.327 95.7826 52.954 95.5406 53.526C95.2326 54.274 94.8146 54.912 94.2866 55.44C93.7586 55.99 93.0766 56.386 92.2406 56.628C91.5366 56.804 90.8766 56.914 90.2606 56.958C89.6446 57.024 88.9846 57.013 88.2806 56.925C87.8186 56.859 87.3236 56.727 86.7956 56.529C86.2676 56.353 85.7726 56.122 85.3106 55.836C84.8486 55.55 84.4416 55.209 84.0896 54.813C83.7376 54.439 83.4956 54.01 83.3636 53.526C83.2096 52.932 83.1986 52.415 83.3306 51.975C83.4846 51.535 83.7156 51.216 84.0236 51.018C84.3316 50.82 84.6946 50.787 85.1126 50.919C85.5306 51.051 85.9266 51.392 86.3006 51.942C86.5646 52.338 86.9496 52.657 87.4556 52.899C87.9616 53.141 88.5006 53.284 89.0726 53.328C89.6446 53.372 90.1946 53.295 90.7226 53.097C91.2726 52.921 91.7016 52.602 92.0096 52.14C92.2296 51.81 92.3836 51.337 92.4716 50.721C92.5816 50.105 92.6476 49.5 92.6696 48.906C91.5476 49.368 90.3926 49.544 89.2046 49.434C88.0386 49.302 86.9716 48.939 86.0036 48.345C85.0576 47.729 84.2876 46.915 83.6936 45.903C83.1216 44.869 82.8796 43.703 82.9676 42.405C83.0336 41.283 83.2646 40.227 83.6606 39.237C84.0786 38.247 84.7606 37.422 85.7066 36.762C86.4766 36.234 87.3456 35.893 88.3136 35.739C89.2816 35.563 90.2166 35.475 91.1186 35.475C91.6466 35.475 92.1636 35.475 92.6696 35.475C93.1976 35.475 93.6816 35.541 94.1216 35.673C94.5616 35.805 94.9576 36.025 95.3096 36.333C95.6616 36.641 95.9256 37.092 96.1016 37.686C96.3876 38.61 96.5416 39.523 96.5636 40.425C96.6076 41.327 96.6296 42.273 96.6296 43.263ZM90.2606 46.002C90.4806 46.002 90.6896 45.98 90.8876 45.936C91.1076 45.892 91.3166 45.837 91.5146 45.771C91.8886 45.639 92.1636 45.463 92.3396 45.243C92.5376 45.023 92.6696 44.781 92.7356 44.517C92.8016 44.231 92.8236 43.923 92.8016 43.593C92.8016 43.263 92.8016 42.922 92.8016 42.57C92.8016 42.284 92.7906 41.965 92.7686 41.613C92.7686 41.261 92.7466 40.931 92.7026 40.623C92.6586 40.293 92.5926 40.007 92.5046 39.765C92.4166 39.523 92.2846 39.369 92.1086 39.303C91.8006 39.215 91.4486 39.16 91.0526 39.138C90.6566 39.094 90.2606 39.094 89.8646 39.138C89.4686 39.16 89.0836 39.237 88.7096 39.369C88.3576 39.479 88.0606 39.633 87.8186 39.831C87.4886 40.117 87.2356 40.469 87.0596 40.887C86.8836 41.305 86.7736 41.745 86.7296 42.207C86.7076 42.669 86.7406 43.12 86.8286 43.56C86.9386 44 87.1256 44.396 87.3896 44.748C87.6976 45.188 88.1156 45.507 88.6436 45.705C89.1716 45.903 89.7106 46.002 90.2606 46.002ZM106.863 34.584C107.589 34.232 108.348 33.979 109.14 33.825C109.932 33.671 110.713 33.638 111.483 33.726C112.275 33.814 113.034 34.023 113.76 34.353C114.508 34.683 115.19 35.145 115.806 35.739C116.312 36.245 116.752 36.861 117.126 37.587C117.5 38.291 117.775 38.984 117.951 39.666C118.325 40.876 118.38 42.097 118.116 43.329C117.852 44.561 117.401 45.705 116.763 46.761C116.455 47.245 116.07 47.685 115.608 48.081C115.168 48.455 114.695 48.763 114.189 49.005C113.529 49.313 112.814 49.522 112.044 49.632C111.274 49.764 110.526 49.797 109.8 49.731C108.48 49.665 107.314 49.335 106.302 48.741C105.312 48.147 104.509 47.388 103.893 46.464C103.299 45.54 102.903 44.495 102.705 43.329C102.529 42.141 102.606 40.931 102.936 39.699C103.288 38.379 103.794 37.312 104.454 36.498C105.136 35.662 105.939 35.024 106.863 34.584ZM107.853 39.006C107.523 39.314 107.27 39.699 107.094 40.161C106.918 40.623 106.808 41.107 106.764 41.613C106.72 42.097 106.753 42.592 106.863 43.098C106.995 43.582 107.193 44.022 107.457 44.418C107.677 44.748 108.073 45.023 108.645 45.243C109.217 45.463 109.811 45.595 110.427 45.639C111.131 45.683 111.747 45.496 112.275 45.078C112.803 44.638 113.199 44.099 113.463 43.461C113.749 42.823 113.881 42.13 113.859 41.382C113.837 40.634 113.639 39.952 113.265 39.336C113.001 38.896 112.627 38.577 112.143 38.379C111.681 38.159 111.186 38.049 110.658 38.049C110.152 38.027 109.646 38.104 109.14 38.28C108.634 38.434 108.205 38.676 107.853 39.006Z" fill="#1DC291"/>
</g>
<defs>
<clipPath id="clip0_1_331">
<rect width="161" height="80" fill="white"/>
</clipPath>
</defs>
</svg>
