<svg width="78" height="32" viewBox="0 0 78 32" fill="none" xmlns="http://www.w3.org/2000/svg">
<path d="M16.066 20.992C16.11 21.102 16.132 21.267 16.132 21.487C16.132 21.685 16.132 21.85 16.132 21.982C16.132 22.158 16.099 22.323 16.033 22.477C15.967 22.631 15.879 22.774 15.769 22.906C15.571 23.17 15.285 23.368 14.911 23.5C14.383 23.676 13.888 23.764 13.426 23.764C13.184 23.786 12.931 23.797 12.667 23.797C12.403 23.797 12.139 23.819 11.875 23.863H11.743C10.049 23.885 8.3 23.885 6.496 23.863C6.056 23.841 5.561 23.841 5.011 23.863C4.461 23.907 3.922 23.896 3.394 23.83C2.866 23.786 2.382 23.665 1.942 23.467C1.524 23.247 1.227 22.906 1.051 22.444C1.007 22.334 0.974 22.235 0.952 22.147C0.93 22.037 0.919 21.927 0.919 21.817C0.831 21.069 0.798 20.332 0.82 19.606C0.842 18.88 0.853 18.165 0.853 17.461L0.919 12.676V8.254C0.919 7.462 0.919 6.758 0.919 6.142C0.941 5.526 0.963 4.844 0.985 4.096V3.931C1.007 3.711 1.018 3.491 1.018 3.271C1.04 3.051 1.051 2.831 1.051 2.611C1.095 2.105 1.216 1.676 1.414 1.324C1.546 0.993999 1.777 0.729999 2.107 0.531999C2.393 0.333999 2.734 0.234999 3.13 0.234999C3.284 0.234999 3.427 0.245998 3.559 0.267998C3.713 0.267998 3.856 0.278999 3.988 0.301C4.12 0.322999 4.241 0.366999 4.351 0.432998C4.483 0.498998 4.615 0.586999 4.747 0.696999C4.879 0.850999 5 1.038 5.11 1.258C5.198 1.5 5.253 1.742 5.275 1.984C5.297 2.138 5.319 2.281 5.341 2.413C5.363 2.545 5.374 2.677 5.374 2.809C5.33 2.941 5.308 3.073 5.308 3.205C5.308 3.337 5.308 3.458 5.308 3.568V4.162L5.176 19.705L11.71 19.771H13.261C13.393 19.771 13.536 19.782 13.69 19.804C13.844 19.804 13.998 19.815 14.152 19.837C14.328 19.859 14.482 19.881 14.614 19.903C14.746 19.925 14.878 19.958 15.01 20.002C15.252 20.068 15.45 20.178 15.604 20.332C15.846 20.552 16 20.772 16.066 20.992ZM24.587 8.584C25.313 8.232 26.072 7.979 26.864 7.825C27.656 7.671 28.437 7.638 29.207 7.726C29.999 7.814 30.758 8.023 31.484 8.353C32.232 8.683 32.914 9.145 33.53 9.739C34.036 10.245 34.476 10.861 34.85 11.587C35.224 12.291 35.499 12.984 35.675 13.666C36.049 14.876 36.104 16.097 35.84 17.329C35.576 18.561 35.125 19.705 34.487 20.761C34.179 21.245 33.794 21.685 33.332 22.081C32.892 22.455 32.419 22.763 31.913 23.005C31.253 23.313 30.538 23.522 29.768 23.632C28.998 23.764 28.25 23.797 27.524 23.731C26.204 23.665 25.038 23.335 24.026 22.741C23.036 22.147 22.233 21.388 21.617 20.464C21.023 19.54 20.627 18.495 20.429 17.329C20.253 16.141 20.33 14.931 20.66 13.699C21.012 12.379 21.518 11.312 22.178 10.498C22.86 9.662 23.663 9.024 24.587 8.584ZM25.577 13.006C25.247 13.314 24.994 13.699 24.818 14.161C24.642 14.623 24.532 15.107 24.488 15.613C24.444 16.097 24.477 16.592 24.587 17.098C24.719 17.582 24.917 18.022 25.181 18.418C25.401 18.748 25.797 19.023 26.369 19.243C26.941 19.463 27.535 19.595 28.151 19.639C28.855 19.683 29.471 19.496 29.999 19.078C30.527 18.638 30.923 18.099 31.187 17.461C31.473 16.823 31.605 16.13 31.583 15.382C31.561 14.634 31.363 13.952 30.989 13.336C30.725 12.896 30.351 12.577 29.867 12.379C29.405 12.159 28.91 12.049 28.382 12.049C27.876 12.027 27.37 12.104 26.864 12.28C26.358 12.434 25.929 12.676 25.577 13.006ZM55.6296 17.263C55.6296 17.967 55.6076 18.726 55.5636 19.54C55.5416 20.354 55.5086 21.113 55.4646 21.817C55.4646 22.477 55.4316 23.137 55.3656 23.797C55.3216 24.369 55.2336 24.985 55.1016 25.645C54.9696 26.327 54.7826 26.954 54.5406 27.526C54.2326 28.274 53.8146 28.912 53.2866 29.44C52.7586 29.99 52.0766 30.386 51.2406 30.628C50.5366 30.804 49.8766 30.914 49.2606 30.958C48.6446 31.024 47.9846 31.013 47.2806 30.925C46.8186 30.859 46.3236 30.727 45.7956 30.529C45.2676 30.353 44.7726 30.122 44.3106 29.836C43.8486 29.55 43.4416 29.209 43.0896 28.813C42.7376 28.439 42.4956 28.01 42.3636 27.526C42.2096 26.932 42.1986 26.415 42.3306 25.975C42.4846 25.535 42.7156 25.216 43.0236 25.018C43.3316 24.82 43.6946 24.787 44.1126 24.919C44.5306 25.051 44.9266 25.392 45.3006 25.942C45.5646 26.338 45.9496 26.657 46.4556 26.899C46.9616 27.141 47.5006 27.284 48.0726 27.328C48.6446 27.372 49.1946 27.295 49.7226 27.097C50.2726 26.921 50.7016 26.602 51.0096 26.14C51.2296 25.81 51.3836 25.337 51.4716 24.721C51.5816 24.105 51.6476 23.5 51.6696 22.906C50.5476 23.368 49.3926 23.544 48.2046 23.434C47.0386 23.302 45.9716 22.939 45.0036 22.345C44.0576 21.729 43.2876 20.915 42.6936 19.903C42.1216 18.869 41.8796 17.703 41.9676 16.405C42.0336 15.283 42.2646 14.227 42.6606 13.237C43.0786 12.247 43.7606 11.422 44.7066 10.762C45.4766 10.234 46.3456 9.893 47.3136 9.739C48.2816 9.563 49.2166 9.475 50.1186 9.475C50.6466 9.475 51.1636 9.475 51.6696 9.475C52.1976 9.475 52.6816 9.541 53.1216 9.673C53.5616 9.805 53.9576 10.025 54.3096 10.333C54.6616 10.641 54.9256 11.092 55.1016 11.686C55.3876 12.61 55.5416 13.523 55.5636 14.425C55.6076 15.327 55.6296 16.273 55.6296 17.263ZM49.2606 20.002C49.4806 20.002 49.6896 19.98 49.8876 19.936C50.1076 19.892 50.3166 19.837 50.5146 19.771C50.8886 19.639 51.1636 19.463 51.3396 19.243C51.5376 19.023 51.6696 18.781 51.7356 18.517C51.8016 18.231 51.8236 17.923 51.8016 17.593C51.8016 17.263 51.8016 16.922 51.8016 16.57C51.8016 16.284 51.7906 15.965 51.7686 15.613C51.7686 15.261 51.7466 14.931 51.7026 14.623C51.6586 14.293 51.5926 14.007 51.5046 13.765C51.4166 13.523 51.2846 13.369 51.1086 13.303C50.8006 13.215 50.4486 13.16 50.0526 13.138C49.6566 13.094 49.2606 13.094 48.8646 13.138C48.4686 13.16 48.0836 13.237 47.7096 13.369C47.3576 13.479 47.0606 13.633 46.8186 13.831C46.4886 14.117 46.2356 14.469 46.0596 14.887C45.8836 15.305 45.7736 15.745 45.7296 16.207C45.7076 16.669 45.7406 17.12 45.8286 17.56C45.9386 18 46.1256 18.396 46.3896 18.748C46.6976 19.188 47.1156 19.507 47.6436 19.705C48.1716 19.903 48.7106 20.002 49.2606 20.002ZM65.8627 8.584C66.5887 8.232 67.3477 7.979 68.1397 7.825C68.9317 7.671 69.7127 7.638 70.4827 7.726C71.2747 7.814 72.0337 8.023 72.7597 8.353C73.5077 8.683 74.1897 9.145 74.8057 9.739C75.3117 10.245 75.7517 10.861 76.1257 11.587C76.4997 12.291 76.7747 12.984 76.9507 13.666C77.3247 14.876 77.3797 16.097 77.1157 17.329C76.8517 18.561 76.4007 19.705 75.7627 20.761C75.4547 21.245 75.0697 21.685 74.6077 22.081C74.1677 22.455 73.6947 22.763 73.1887 23.005C72.5287 23.313 71.8137 23.522 71.0437 23.632C70.2737 23.764 69.5257 23.797 68.7997 23.731C67.4797 23.665 66.3137 23.335 65.3017 22.741C64.3117 22.147 63.5087 21.388 62.8927 20.464C62.2987 19.54 61.9027 18.495 61.7047 17.329C61.5287 16.141 61.6057 14.931 61.9357 13.699C62.2877 12.379 62.7937 11.312 63.4537 10.498C64.1357 9.662 64.9387 9.024 65.8627 8.584ZM66.8527 13.006C66.5227 13.314 66.2697 13.699 66.0937 14.161C65.9177 14.623 65.8077 15.107 65.7637 15.613C65.7197 16.097 65.7527 16.592 65.8627 17.098C65.9947 17.582 66.1927 18.022 66.4567 18.418C66.6767 18.748 67.0727 19.023 67.6447 19.243C68.2167 19.463 68.8107 19.595 69.4267 19.639C70.1307 19.683 70.7467 19.496 71.2747 19.078C71.8027 18.638 72.1987 18.099 72.4627 17.461C72.7487 16.823 72.8807 16.13 72.8587 15.382C72.8367 14.634 72.6387 13.952 72.2647 13.336C72.0007 12.896 71.6267 12.577 71.1427 12.379C70.6807 12.159 70.1857 12.049 69.6577 12.049C69.1517 12.027 68.6457 12.104 68.1397 12.28C67.6337 12.434 67.2047 12.676 66.8527 13.006Z" fill="#1DC291"/>
</svg>
