<svg width="41" height="41" viewBox="0 0 41 41" fill="none" xmlns="http://www.w3.org/2000/svg">
<path d="M7.49999 32.3529L7.04999 18.2353L12 17.3529L17.4 12.0588L19.2 6.32349H21.9L24.15 9.8529L22.8 16.0294H36.3L37.65 18.6764L36.75 22.2058H29.55L28.2 28.3823L26.4 32.3529L22.8 34.1176L7.49999 32.3529Z" fill="#FFCF40"/>
<path d="M3 30.9452V18.7243C3.06576 17.431 4.13364 16.4972 5.30694 16.4816H10.8901C12.486 15.28 13.617 13.6124 15.1551 12.4048C15.6979 11.9804 16.1179 11.5084 16.4152 10.9889C17.3816 9.12769 16.796 6.96084 18.1696 5.47716C20.9298 4.31593 24.2365 5.94043 25.168 8.48961C25.9001 10.5714 25.4095 12.6474 24.4991 14.486C27.7948 14.4806 31.0904 14.5068 34.386 14.524C37.0691 14.7204 38.9821 16.4914 38.9999 19.0094C38.9926 21.5469 36.7613 23.3923 34.386 23.4378H30.5088C30.3796 24.1853 30.1276 24.8632 29.7528 25.4714C29.9699 27.0345 29.473 28.5669 28.5121 29.6718C27.9848 38.6938 15.9288 33.3412 11.4135 33.2069H5.30694C3.97851 33.1452 3.01584 32.1013 3 30.9452ZM11.3166 30.9452C14.9294 31.0214 27.2739 36.3763 26.0888 28.7025C27.3952 28.0122 27.8979 26.1647 27.0969 24.9963C28.3139 23.8197 28.6605 22.3415 27.4847 21.1761C28.6478 21.1761 29.7981 21.1698 30.9354 21.1571C32.0727 21.1444 33.223 21.1381 34.3861 21.1381C35.7172 21.1107 36.6398 20.1532 36.6543 19.0095C36.6239 17.6572 35.5769 16.7995 34.3861 16.7858C29.8745 16.7855 25.4271 16.7482 21.2423 16.7478C21.619 13.7841 25.2254 9.75996 21.5428 7.42531C20.9533 7.14143 20.4818 7.02093 19.8659 7.13069C19.7626 7.18137 19.7044 7.23208 19.6915 7.28275C19.6785 7.33343 19.6592 7.41578 19.6333 7.52981C19.242 9.87893 18.8767 12.2278 17.0162 13.7828C14.9683 15.3223 13.7608 17.746 11.4136 18.7244H11.3167L11.3166 30.9452Z" fill="#FFCF40"/>
<rect x="10" y="20" width="1" height="9" fill="white"/>
<circle cx="35.5" cy="9.5" r="1.5" fill="#FFCF40"/>
<circle cx="30.5" cy="2.5" r="1.5" fill="#FFF388"/>
</svg>
