<svg width="128" height="25" viewBox="0 0 128 25" fill="none" xmlns="http://www.w3.org/2000/svg">
<path d="M12 0.5L14.7649 8.69438L23.4127 8.7918L16.4738 13.9536L19.0534 22.2082L12 17.204L4.94658 22.2082L7.52623 13.9536L0.587322 8.7918L9.23506 8.69438L12 0.5Z" fill="#FFCF40"/>
<path d="M38 0.5L40.7649 8.69438L49.4127 8.7918L42.4738 13.9536L45.0534 22.2082L38 17.204L30.9466 22.2082L33.5262 13.9536L26.5873 8.7918L35.2351 8.69438L38 0.5Z" fill="#FFCF40"/>
<path d="M64 0.5L66.7649 8.69438L75.4127 8.7918L68.4738 13.9536L71.0534 22.2082L64 17.204L56.9466 22.2082L59.5262 13.9536L52.5873 8.7918L61.2351 8.69438L64 0.5Z" fill="#FFCF40"/>
<path d="M90 0.5L92.7649 8.69438L101.413 8.7918L94.4738 13.9536L97.0534 22.2082L90 17.204L82.9466 22.2082L85.5262 13.9536L78.5873 8.7918L87.2351 8.69438L90 0.5Z" fill="#FFCF40"/>
<path d="M116 0.5L118.765 8.69438L127.413 8.7918L120.474 13.9536L123.053 22.2082L116 17.204L108.947 22.2082L111.526 13.9536L104.587 8.7918L113.235 8.69438L116 0.5Z" fill="#FFCF40"/>
</svg>
