<svg width="29" height="19" viewBox="0 0 29 19" fill="none" xmlns="http://www.w3.org/2000/svg">
<g clip-path="url(#clip0_17_869)">
<path d="M27.0442 18.22H1.96423V7.77002L8.23423 12.79L14.5042 7.77002L20.7742 12.79L27.0442 7.77002V18.22Z" fill="#FFDA40"/>
<path d="M17.0742 2.86004C17.0742 4.28004 15.9242 5.43004 14.5042 5.43004C13.0842 5.43004 11.9342 4.28004 11.9342 2.86004C11.9342 1.44004 13.0842 0.290039 14.5042 0.290039C15.9242 0.290039 17.0742 1.44004 17.0742 2.86004Z" fill="#FFDA40"/>
<path d="M28.3242 4.73992C28.3242 6.15992 27.1742 7.30992 25.7542 7.30992C24.3342 7.30992 23.1842 6.15992 23.1842 4.73992C23.1842 3.31992 24.3342 2.16992 25.7542 2.16992C27.1742 2.16992 28.3242 3.31992 28.3242 4.73992Z" fill="#FFDA40"/>
<path d="M5.8142 4.73993C5.8142 6.15993 4.6642 7.30993 3.2442 7.30993C1.8242 7.30993 0.684204 6.15993 0.684204 4.73993C0.684204 3.31993 1.8342 2.17993 3.2542 2.17993C4.6742 2.17993 5.8242 3.32993 5.8242 4.74993L5.8142 4.73993Z" fill="#FFDA40"/>
</g>
<defs>
<clipPath id="clip0_17_869">
<rect width="27.64" height="17.93" fill="white" transform="translate(0.684204 0.290039)"/>
</clipPath>
</defs>
</svg>
