<svg width="78" height="108" viewBox="0 0 78 108" fill="none" xmlns="http://www.w3.org/2000/svg">
<path d="M76.4481 39.2677C76.2771 38.7873 75.835 38.4547 75.4012 38.1755C73.5659 36.9971 71.4469 36.258 69.2654 36.0322C68.965 35.9993 68.623 35.9583 68.4478 35.716C68.3435 35.5723 68.3227 35.3876 68.306 35.2151C68.2184 34.3282 68.3561 29.5859 67.6052 29.1466C67.0088 28.7976 65.7616 30.3086 65.7616 30.9162C65.3319 33.6795 64.969 36.451 64.6771 39.2307C64.3976 41.8995 64.1932 44.6505 65.0108 47.2085C65.3236 48.1857 65.8617 49.1383 65.9868 50.1565C65.5488 50.3741 65.2193 50.2017 64.7271 50.058L63.9263 56.0855C63.9263 56.0855 60.5726 51.2939 59.9761 50.136C59.3797 48.9781 58.3577 48.3417 56.3848 47.3029C54.4076 46.2641 49.5232 42.1746 48.0424 40.9018C46.5616 39.629 44.9349 38.1508 43.7044 38.1591C42.4739 38.1673 41.5896 35.7735 41.5896 35.7735C43.5334 34.0244 45.9777 32.3779 46.741 29.7707C46.8703 29.3272 46.9621 28.8592 47.2374 28.4855C47.9006 27.5863 49.2479 27.6397 50.299 27.2373C52.0509 26.564 52.9269 24.2647 52.0509 22.6223C51.9466 22.4293 51.8173 22.2363 51.6213 22.1337C51.3627 21.9941 51.0498 22.0269 50.762 22.068L47.7546 22.4622C47.838 20.3681 47.8881 18.1345 46.7827 16.3444C46.4156 15.7531 45.9401 15.2399 45.4688 14.7307C43.0245 12.0947 40.5802 9.45875 38.1317 6.82275C33.8228 11.3187 28.3419 14.7102 22.3563 16.5825C22.227 18.4178 22.0977 20.2491 21.9684 22.0844C22.0351 21.1236 19.157 22.2158 18.8608 22.4991C18.0308 23.2957 17.7054 24.6629 18.256 25.6935C19.3739 27.7957 21.5596 26.7446 22.9653 28.0175C23.5868 28.58 23.5409 29.5859 23.8245 30.3209C24.2333 31.3843 24.9007 32.3533 25.7641 33.1129C26.5191 33.778 27.4201 34.2995 28.0291 35.096C29.0302 36.4017 28.5213 37.9209 27.2449 38.7914C24.3209 40.7868 21.7348 43.4721 18.6523 45.2089C16.2914 46.5392 13.3549 47.8367 11.3902 49.7377C10.4726 50.6246 9.29631 51.8646 8.49544 54.1105C7.69457 56.3564 6.96461 58.9391 6.96461 58.9391L4.54533 59.7602L5.75497 63.3652C5.75497 63.3652 2.05931 75.3504 1.51705 77.2925C0.970628 79.2387 0.632762 81.5832 0.666132 82.6876C0.699501 83.7921 0.361635 85.2538 1.40026 86.4774C2.43888 87.701 3.25643 88.9738 4.53282 89.3597C5.8092 89.7457 6.73103 90.1481 8.51629 89.5609C10.3057 88.9738 14.1516 87.0153 14.1516 87.0153L16.0077 91.7165H55.0667C55.0667 91.7165 53.9613 80.6963 54.0614 79.0375C54.1615 77.3787 55.9676 68.8795 55.9676 68.8795C55.9676 68.8795 60.0554 71.7947 60.4642 72.1313C60.873 72.468 64.0556 75.6008 66.6792 76.188C69.3029 76.7751 70.8838 76.7259 71.5679 76.188C72.2519 75.6501 73.8495 71.9959 73.8495 71.9959C73.8495 71.9959 76.0978 64.0673 75.9434 61.185C75.7891 58.3027 75.6389 53.1744 75.6181 53.1046C75.6014 53.0389 74.4585 52.6365 74.4418 52.5667C74.4251 52.501 74.1206 50.5261 74.1165 50.5219C74.1165 50.5219 73.4616 50.5055 73.4199 50.5055C73.107 49.4216 74.2624 48.8467 74.8005 48.0214C75.5096 46.9375 75.8975 45.6441 75.885 44.3549C75.8767 43.5132 75.7098 42.6509 75.9184 41.8338C76.1353 40.9716 76.7568 40.1135 76.4565 39.2759L76.4481 39.2677Z" fill="white"/>
<path d="M20.8254 68.7521C21.3385 68.4523 22.4063 66.4938 22.9694 65.6726C23.5325 64.8515 24.0915 64.0344 25.1635 63.2789C26.2355 62.5234 28.2752 61.6735 28.7173 61.7392C29.1595 61.809 29.4473 61.9198 29.2262 62.8683C29.0051 63.8168 27.0864 65.2867 27.0864 65.2867L30.7237 64.1494L26.6901 52.583L25.1009 53.1332L4.70801 59.7642L9.70508 73.9707L20.083 69.5158C20.083 69.5158 20.3082 69.0477 20.8213 68.748L20.8254 68.7521Z" fill="#39B54A"/>
<path d="M34.5028 75.5063C34.5028 75.5063 34.4819 76.0278 32.8218 76.5246C31.1617 77.0214 28.6089 78.0192 27.1031 78.052C25.5973 78.0808 25.1051 78.1013 24.7672 78.8362C24.4294 79.5712 24.6671 79.6574 23.4241 80.4745C22.1811 81.2916 14.1558 86.8633 14.1558 86.8633L15.7992 91.7329L37.506 84.486L34.507 75.5105L34.5028 75.5063Z" fill="#39B54A"/>
<path d="M73.7119 53.6711C73.6993 53.5562 73.6868 53.4617 73.6701 53.3714C73.2697 53.5603 72.8442 53.6958 72.4104 53.8025C72.3354 53.7984 72.2561 53.8025 72.1769 53.8148C70.913 54.0653 69.5115 53.6588 68.2893 53.355C67.2048 53.084 66.0452 52.8869 65.0692 52.3285C64.9315 52.2505 64.7939 52.2176 64.6646 52.2258C64.6646 52.2423 64.6604 52.2628 64.6562 52.2792C64.2892 53.5603 63.8554 54.8783 63.847 56.225C63.847 56.4467 63.6968 56.574 63.5258 56.611C63.5258 56.611 63.4049 56.8614 63.3465 56.8943C63.2422 56.9559 63.1087 56.9435 62.9961 56.9107C62.6832 56.8163 62.4914 56.4262 62.3287 56.1593C61.1441 54.2131 59.8093 52.1766 59.0168 50.0374C58.8624 49.6432 58.8499 49.245 58.5621 48.9124C58.2326 48.5305 57.9114 47.7258 57.4442 47.5656C55.4713 46.8964 50.1113 43.7595 48.8266 42.9875C47.5419 42.2156 45.8108 40.5774 44.6721 39.243C43.5334 37.9085 42.2528 38.0646 42.0359 38.0646C41.819 38.0646 42.4906 38.8242 42.4906 38.8242L42.9994 40.6759C42.9994 40.6759 42.2778 50.7888 41.7314 52.7186C41.185 54.6524 38.0941 71.3799 38.0941 71.3799C38.0941 71.3799 37.7104 72.5131 37.5227 73.1906C37.3392 73.8681 36.0711 74.6031 36.0711 74.8987C36.0711 75.1943 37.8272 79.5917 37.969 80.027C38.1108 80.4622 39.1953 83.907 39.1953 83.907L15.8159 91.7083H53.4024L51.9633 80.7496L54.1991 67.701C54.1991 67.701 60.3599 72.3037 61.5028 73.1742C62.6415 74.0446 65.1734 75.6952 66.5041 75.8677C68.9776 76.1961 70.2706 75.8923 71.2842 73.671C72.6857 70.5998 73.1029 67.196 73.4324 63.8456C73.6451 61.7064 73.8328 59.559 73.8537 57.4075C73.8537 57.3131 73.8537 57.2186 73.8537 57.1201C73.8537 55.9704 73.8203 54.8167 73.6952 53.6752L73.7119 53.6711ZM51.4377 65.2128C50.8913 65.1718 50.3407 65.1389 49.7943 65.1102C48.422 65.0445 47.0497 65.024 45.6773 65.0938C45.3687 65.1102 44.8223 65.1964 44.6471 64.8679C44.597 64.7735 44.5928 64.6626 44.5845 64.5559C44.5553 63.9523 44.4802 63.3323 44.5511 62.7329C44.5761 62.507 44.7221 62.3305 44.9682 62.3223C47.1831 62.2525 49.398 62.3469 51.6088 62.31C51.7297 62.31 51.8215 62.351 51.8882 62.4126C51.8841 63.3159 51.8674 64.2315 51.8966 65.143C51.7756 65.2211 51.6254 65.2252 51.4419 65.2128H51.4377Z" fill="#F0F0EE"/>
<path d="M27.1656 38.7133L22.4522 42.1787L21.8849 43.7225C21.8849 43.7225 14.7605 47.2947 13.3507 48.3828C11.9367 49.4708 9.9762 50.9572 9.27962 52.2259C8.5872 53.4987 7.04803 59.0376 7.04803 59.0376L28.7799 51.8646L27.1698 38.7092L27.1656 38.7133Z" fill="#F0F0EE"/>
<path d="M5.71327 62.9874C5.71327 62.9874 2.3221 75.1204 1.65471 77.2062C0.983154 79.292 0.449242 81.6077 0.670315 84.0015C0.895559 86.3952 2.28456 87.3149 3.16468 88.4892C4.04897 89.6676 6.52665 90.1603 7.23992 89.9838C7.95737 89.8072 11.2651 88.752 13.9472 86.9906C16.6293 85.2291 21.593 82.2359 22.4439 81.3573C23.2948 80.4786 23.4783 80.0803 23.4783 80.0803C23.4783 80.0803 23.0696 80.0926 21.6806 78.8116C20.2957 77.5264 19.5324 76.2577 19.2654 74.8248C18.9985 73.3918 19.0736 70.0044 19.0736 70.0044L11.7531 72.9976L9.60498 73.6915L5.70493 62.9874H5.71327Z" fill="#F0F0EE"/>
<path d="M14.4102 107.2L14.4269 107.216C14.4269 107.216 14.4186 107.208 14.4144 107.204L14.4102 107.2Z" fill="#333333"/>
<path d="M54.8706 92.045C54.8706 92.045 54.8706 92.0408 54.8623 92.0367C54.8623 92.0367 54.8623 92.045 54.8706 92.045Z" fill="#333333"/>
<path d="M14.4185 107.212L14.406 107.2C14.406 107.2 14.406 107.204 14.406 107.208C14.4102 107.208 14.4185 107.208 14.4227 107.212H14.4185Z" fill="#333333"/>
<path d="M76.64 38.0358C76.2605 37.5513 75.6139 37.3091 74.7672 37.3337C74.1665 36.3729 73.6159 36.0814 72.5898 36.1758C72.4313 36.1923 72.2645 36.2169 72.0726 36.2497C71.3593 35.4984 70.8087 35.215 70.1747 35.2725C69.7826 35.3095 69.353 35.4778 68.7899 35.8104C68.8816 34.5376 68.8024 33.3428 68.7231 32.1808L68.6981 31.803C68.6856 31.5977 68.6773 31.3883 68.6731 31.183C68.6522 30.5302 68.6314 29.8609 68.3978 29.2204C68.1892 28.6538 67.8263 28.3623 67.2549 28.2966C67.1464 28.2843 67.0338 28.2843 66.9295 28.2966C66.162 28.3705 65.5489 29.0028 65.3278 29.9472C65.1401 30.7725 65.0108 31.6634 64.9482 32.5914C64.748 35.5312 64.431 37.9044 63.9471 40.0682C63.6635 41.3411 63.5467 42.655 63.6552 43.9565C63.7386 45.0035 63.968 46.0382 64.3225 47.0319C64.5061 47.5451 64.723 48.046 64.9649 48.5346C65.0734 48.7481 65.1985 48.9575 65.3236 49.171C64.5103 48.8097 64.3309 48.9781 64.1557 50.1113C63.9597 51.3923 63.7136 52.6693 63.4841 53.9914C63.0378 53.7697 62.921 53.4206 62.7458 53.1291C62.1535 52.1191 61.5904 51.0926 60.9981 50.0825C60.5977 49.3969 60.1013 48.7851 59.4673 48.2965C59.4756 48.2677 59.484 48.2431 59.4923 48.2144C59.3672 48.1076 59.2295 48.0091 59.071 47.9146C58.4704 47.5492 57.828 47.2372 57.2065 46.9333C56.5308 46.6048 55.8342 46.2641 55.2002 45.8617C54.2992 45.2868 53.3065 44.827 52.3471 44.3794C50.541 43.5377 48.6764 42.6673 47.3375 41.0208C46.9371 40.5281 46.4324 40.1134 45.9443 39.711C45.5022 39.3497 45.0475 38.9761 44.6679 38.5408C44.4385 38.2781 44.1424 38.1467 43.7837 38.1467C43.646 38.1467 43.5 38.1672 43.3415 38.2041C43.2706 38.2206 43.2122 38.2534 43.158 38.2904C42.7951 37.4651 42.5657 36.5905 42.3029 35.7242C42.2361 35.5107 42.1569 35.3013 41.8774 35.2602C41.6188 35.2972 41.4895 35.4655 41.4186 35.6913C41.3101 36.0527 41.3101 36.414 41.3727 36.7835C41.5646 37.9003 41.8315 38.9966 42.5406 39.9245C42.5281 39.9656 42.5198 40.0025 42.5156 40.0272C42.3988 40.5322 42.3237 40.9756 42.2862 41.378C42.061 43.743 41.819 46.2846 41.6063 48.822C41.5604 49.3681 41.3936 49.7294 40.7178 49.8362C38.8783 50.1277 37.0222 50.2755 35.2035 50.2755C33.3849 50.2755 31.512 50.1236 29.6892 49.828C29.1053 49.7335 28.8717 49.4749 28.8258 48.8836C28.7007 47.1222 28.538 45.3361 28.3795 43.6034L28.3169 42.9177C28.2293 41.957 28.1417 40.9633 27.8998 40.0066C28.0124 39.8876 28.1125 39.7562 28.1876 39.6166C28.7299 38.6065 29.0677 37.5349 29.1637 36.3606C29.1553 36.2744 29.1553 36.1512 29.1386 36.0321C29.0886 35.716 29.0594 35.3218 28.6673 35.2807C28.2293 35.2356 28.2335 35.6626 28.1334 35.9541C27.8873 36.6809 27.6912 37.4281 27.3993 38.1385C27.3951 38.1385 27.3909 38.1385 27.3867 38.1344C27.2825 38.1056 27.174 38.1097 27.0656 38.1097C26.2605 38.1302 25.76 38.5326 25.1969 39.0623C24.7672 39.4647 24.3251 39.8588 23.8746 40.2407C23.3991 40.6431 22.8485 40.9962 22.4022 41.4232C22.0309 41.7763 21.789 42.2362 21.5888 42.7207C18.5855 44.5396 15.5906 46.379 12.5749 48.1733C10.9523 49.1382 9.59666 50.4603 8.88756 52.1027C8.01161 54.1351 7.04806 56.1593 6.45159 58.3067C6.4349 58.3601 6.42239 58.4134 6.4057 58.4668C6.11789 58.5612 5.83008 58.6516 5.54227 58.746C4.02396 59.2346 3.93219 59.4194 4.44525 60.9098C4.67466 61.5709 4.90408 62.236 5.13349 62.8971C4.59541 64.8679 3.81957 67.8037 3.3816 69.4994C2.59324 72.5501 1.5713 75.5433 0.653645 78.5652C-0.368294 81.9321 -0.376637 85.1388 1.97591 88.0745C3.23561 89.643 6.11372 90.846 7.90316 90.3451C9.95121 89.7703 11.9158 88.9409 13.7762 87.9226C14.0807 88.7807 14.4936 89.8934 14.7564 90.6489C15.2611 92.0983 14.9566 92.4966 17.0964 91.7822C24.2208 89.4048 31.3744 87.1055 38.5155 84.7775C39.992 84.2971 40.1005 84.0959 39.6083 82.6753C39.4373 82.1784 39.2663 81.6816 39.0911 81.1848C39.3455 80.8276 39.6 80.4622 39.8461 80.0885C42.4113 76.2454 44.3676 72.0533 46.3156 67.7339C46.6409 67.0112 46.9412 66.3214 47.229 65.6439C47.6462 65.6398 48.0675 65.6316 48.4846 65.6275C49.4523 65.6439 50.4242 65.6563 51.3919 65.6686C51.6046 65.6727 51.8173 65.6357 52.0301 65.5988C52.5473 65.5126 52.8268 65.2169 52.8226 64.6955C52.8184 64.1412 52.8226 63.5869 52.8059 63.0326C52.7767 62.1293 52.4347 61.7967 51.492 61.7721C50.5952 61.7515 49.6942 61.7474 48.7974 61.7392C49.5983 59.5836 50.224 57.5964 50.7162 55.6337C50.9247 54.8043 50.7495 54.1597 50.153 53.5397C49.4898 52.8581 48.8558 52.1519 48.1842 51.4046C47.9215 51.109 47.6503 50.8134 47.375 50.5096L47.3584 50.4931H47.3834C47.6545 50.4439 47.9131 50.4028 48.1717 50.3617C48.7849 50.2632 49.3689 50.1688 49.9403 50.0538C50.5994 49.9224 51.0749 49.7705 51.2417 49.4461C51.4127 49.1259 51.2668 48.6619 51.004 48.0583C50.8788 47.775 50.7412 47.4917 50.6077 47.2125C50.4325 46.8471 50.249 46.4693 50.0905 46.0875C50.0071 45.8904 49.9153 45.6933 49.8277 45.5045C49.6108 45.0446 49.3897 44.5642 49.2646 44.0099L49.2562 43.9812L49.2813 43.9976C49.6191 44.1988 49.9487 44.4 50.274 44.5971C51.0707 45.0815 51.8257 45.5373 52.5974 45.9766L52.8143 46.0998C54.3659 46.9744 55.9677 47.8818 57.6528 48.5757C58.0366 48.7358 58.4829 48.9124 58.7957 49.208C60.2807 51.1911 61.1066 53.5602 62.5623 55.5598C62.9252 56.0566 63.042 56.5822 62.9419 57.2063C62.5248 59.7971 62.141 62.3962 61.7656 64.9952C61.6738 65.6275 61.6405 66.2721 61.6321 66.9127C61.6238 67.2945 61.8324 67.6107 62.2536 67.6353C62.6749 67.6599 62.8835 67.3725 62.9711 66.9948C63.0045 66.8552 63.017 66.7074 63.0337 66.5637C63.48 62.3017 64.2308 58.0809 64.7939 53.8312C64.8189 53.6506 64.7689 53.4124 65.0567 53.2893C68.2601 54.8126 71.5178 55.6543 74.8256 53.6177C74.8256 55.4613 74.884 57.2966 74.8131 59.1238C74.6963 62.2401 74.6754 65.3688 73.9371 68.4319C73.4533 70.4396 73.203 72.5254 71.9683 74.2869C71.0423 75.609 69.8702 76.0647 68.2852 75.6706C66.8169 75.3093 65.4571 74.6975 64.1557 73.9132C61.824 72.5049 59.8677 70.6121 57.6528 69.0642C57.2774 68.8014 56.852 68.4811 56.464 68.826C56.7352 67.0071 57.0021 65.1841 57.3108 63.3734C57.9573 59.5713 58.4412 55.7528 58.558 51.8974C58.5663 51.573 58.5872 51.2486 58.5705 50.9284C58.5538 50.5999 58.7081 50.1031 58.2326 50.0415C57.6862 49.9717 57.7321 50.5219 57.632 50.8627C57.5402 51.1747 57.4693 51.4909 57.4318 51.8111C57.2274 53.5028 57.0939 55.2067 56.8269 56.8901C55.9468 62.466 55.025 68.0377 54.1157 73.6094C53.6235 76.6149 52.906 79.5917 53.3357 82.6835C53.6944 85.2579 54.0239 87.8405 54.295 90.4231C54.3534 90.9856 54.5036 91.6056 54.8748 92.0491C54.8748 92.0408 54.904 92.0285 54.9207 92.0367C55.1042 92.1147 55.3253 92.0983 55.4922 91.9957C55.9593 91.7124 55.8092 91.039 55.7591 90.5997C55.7007 90.0741 55.6382 89.5527 55.5756 89.0271C55.4504 87.9801 55.317 86.9331 55.1751 85.8861C54.8123 83.2131 54.2283 80.6264 54.8748 77.8098C55.4838 75.1573 55.9134 72.4639 56.3181 69.7663C56.4348 69.9223 56.6059 70.0619 56.7685 70.1933C58.0616 71.2157 59.3213 72.2791 60.6519 73.244C62.8209 74.8207 65.0191 76.348 67.7012 77.0091C70.108 77.6045 71.9266 76.9557 73.3198 74.9479C73.7244 74.3649 74.0372 73.7367 74.2583 73.0715C75.2469 70.0948 75.8725 67.0441 76.0811 63.9113C76.3063 60.5033 76.2855 57.0913 76.248 53.6752C76.2438 53.2482 76.3314 52.62 75.8141 52.5461C74.7296 52.3901 74.8548 51.6592 74.8089 50.9366C74.7588 50.1729 74.4502 49.7787 73.8787 49.7294C73.9037 49.7089 73.9288 49.6884 73.9496 49.6637C75.5764 48.1446 76.3814 46.0875 76.4065 43.3776C76.419 42.0637 76.5483 41.107 76.8403 40.1873C77.1156 39.3004 77.053 38.5614 76.6526 38.0481L76.64 38.0358ZM29.0302 50.8914C31.1408 51.2815 33.1638 51.4703 35.2119 51.4703C37.2599 51.4703 39.212 51.2856 41.2768 50.9119H41.2935L41.0599 52.2669C40.8847 53.2852 40.7137 54.287 40.5468 55.2888C40.2215 57.2391 39.7918 59.2018 39.3705 61.1028C38.9785 62.8848 38.5738 64.7242 38.261 66.5513C38.1192 67.3643 37.9607 68.1896 37.7855 69.0231C37.6437 68.8178 37.4643 68.6289 37.214 68.4688C37.0722 68.3785 37.0305 68.2225 37.1014 68.0623C37.5144 67.196 37.0472 66.5226 36.4841 65.9272C36.0753 65.4961 35.8542 65.0486 35.7541 64.4327C35.5706 63.32 34.8031 62.6589 33.6977 62.6589C33.4308 62.6589 33.1471 62.7 32.8593 62.778C32.8218 62.7903 32.7842 62.8027 32.7425 62.815C31.6622 59.6904 30.586 56.5617 29.5057 53.4371C29.343 52.5954 29.1762 51.7495 29.0093 50.9037V50.8832H29.026L29.0302 50.8914ZM34.2859 75.0793C32.2962 76.0155 30.1147 76.4959 27.9999 76.9639C27.7038 77.0296 27.3951 77.0584 27.0989 77.0871C26.7027 77.1241 26.2897 77.1651 25.8976 77.2924C25.8017 77.3212 25.6974 77.3458 25.5848 77.3704C25.3303 77.4279 25.0551 77.4936 24.8673 77.6455C24.859 77.6373 24.8548 77.6332 24.8507 77.625C23.7745 76.5123 22.6775 75.4448 22.2854 73.8558C21.9642 72.546 21.7723 71.2198 21.5763 69.8895C21.5554 69.7375 21.5221 69.602 21.4803 69.483C21.6639 69.1381 21.8516 68.7973 22.0351 68.4606C22.2228 68.1198 22.4064 67.779 22.5899 67.4341C23.7828 65.1882 25.5556 63.5746 27.8581 62.6343C27.9415 62.6015 28.0249 62.5563 28.1042 62.5111C28.271 62.4208 28.4254 62.3346 28.6047 62.3346C28.6715 62.3346 28.7424 62.3469 28.8091 62.3715C28.6256 62.8314 28.3211 63.1968 27.8623 63.513L27.7872 63.5622C27.2366 63.94 26.6693 64.3342 26.2564 64.909L26.198 64.9911C25.9936 65.2703 25.7808 65.5618 25.9894 65.9314C26.1187 66.1531 26.3106 66.268 26.565 66.268C26.7611 66.268 26.9655 66.2023 27.1281 66.149C27.5244 66.0176 27.9248 65.8698 28.3086 65.7261C28.8383 65.5249 29.3889 65.3196 29.9395 65.1635C30.4025 65.0322 30.8613 64.8638 31.3077 64.7037C32.0209 64.445 32.7551 64.174 33.5225 64.0509C33.6185 64.0344 33.7103 64.0262 33.7937 64.0262C34.0189 64.0262 34.1816 64.0837 34.2775 64.1987C34.3776 64.3177 34.4027 64.5066 34.3484 64.753C34.1899 65.5084 34.4152 66.0012 35.1034 66.4076C35.5998 66.6992 35.8501 67.2206 35.7291 67.7051C35.5247 68.5263 35.9543 69.0477 36.3756 69.4707C36.6885 69.7868 36.7719 70.1974 36.8637 70.6326C36.9596 71.113 37.0639 71.6098 37.4935 71.9711C37.4893 72.0327 37.4268 72.2093 37.36 72.2996C36.4841 73.4164 35.5915 74.4717 34.2984 75.0793H34.2859ZM23.9997 41.7352C24.3209 41.5094 24.6129 41.2466 24.9049 40.9839C25.4847 40.4624 26.0937 39.8753 26.857 39.6248C26.7986 39.7644 26.8236 39.9368 26.8487 40.0929C26.8487 40.1216 26.857 40.1462 26.8612 40.175C26.882 40.331 26.8904 40.4911 26.9029 40.6513C26.9112 40.758 26.9154 40.8648 26.9279 40.9756C27.0447 42.2362 27.1198 43.5172 27.1865 44.7572C27.2908 46.6213 27.3993 48.551 27.6662 50.4316C27.7204 50.8093 27.7747 51.187 27.8331 51.5648C27.5995 51.6305 27.3325 51.7044 27.0656 51.7906C25.3512 52.3449 23.6327 52.8992 21.9183 53.4535C22.2228 53.0881 22.5273 52.7268 22.8318 52.3613L22.8735 52.3121C23.2698 51.8358 23.666 51.3595 24.0623 50.8832C24.3793 50.5055 24.5503 50.2427 24.4961 50.0045C24.4419 49.7705 24.1666 49.598 23.737 49.3969C23.5451 49.3065 23.3282 49.2737 23.1196 49.2367L23.0153 49.2203C22.4064 49.1177 21.7974 49.015 21.1258 48.9083L20.3666 48.7851L20.375 48.7687C21.1884 47.0483 21.8266 45.254 22.5649 43.5008C22.715 43.1436 22.836 42.6426 23.1113 42.3552C23.3657 42.0883 23.7036 41.9405 24.0039 41.7311L23.9997 41.7352ZM9.37141 53.9051C10.1222 52.0164 11.165 50.4357 12.8502 49.3271C14.723 48.0994 16.6793 46.999 18.5689 45.796C19.3489 45.2992 20.1706 44.8639 20.9506 44.3712C20.4376 45.603 19.9287 46.8348 19.3864 48.0542C19.1236 48.6537 18.9818 49.1177 19.1528 49.4379C19.3238 49.7623 19.7994 49.9183 20.4584 50.0497C21.0257 50.1647 21.6013 50.255 22.2186 50.3535C22.4731 50.3946 22.7359 50.4357 23.0112 50.4808H23.0362L23.0195 50.5014C22.7359 50.8134 22.4606 51.1172 22.1853 51.4252C21.5137 52.1725 20.8797 52.8746 20.2207 53.552C20.0371 53.7409 19.8953 53.9339 19.7952 54.1392C17.622 54.8413 15.4447 55.5434 13.2715 56.2455C12.9253 55.1369 12.5749 54.0324 12.212 52.932C12.1286 52.6857 11.9117 52.5297 11.6197 52.5995C11.3235 52.6693 11.2526 52.8992 11.1859 53.1866C11.5237 54.3198 11.8574 55.4572 12.2036 56.5904C10.7813 57.0503 9.35473 57.5101 7.93236 57.97C8.37033 56.6027 8.84167 55.2478 9.37141 53.9093V53.9051ZM27.9207 52.8828C29.1178 56.3482 30.3149 59.8053 31.5079 63.2625C30.9948 63.4555 30.4651 63.632 29.8936 63.669C29.8561 63.4719 29.927 63.3528 29.9979 63.2256C30.0313 63.1681 30.0646 63.1065 30.0855 63.0408C30.2565 62.4988 30.4025 61.7023 29.6851 61.0371C29.439 60.8072 29.1929 60.6963 28.9301 60.6963C28.5714 60.6963 28.246 60.9057 27.9499 61.1315C27.8497 61.2055 27.7204 61.2506 27.5828 61.2958C27.4702 61.3327 27.3534 61.3697 27.2491 61.4272C26.9738 61.5832 26.6902 61.731 26.4065 61.8788C25.347 62.4372 24.2458 63.0121 23.4366 63.9934C22.3188 65.3483 21.3302 66.9168 20.3708 68.8383C20.2332 68.8671 20.0872 68.9122 19.9245 68.982C19.4448 69.1914 19.0194 69.5405 18.5272 69.7047C15.6365 70.6655 12.8418 71.8521 10.0179 72.9853C8.53301 68.6987 7.04389 64.4081 5.55061 60.0969C13.0337 57.6826 20.4167 55.3012 27.9123 52.8787L27.9207 52.8828ZM7.51524 89.138C6.9855 89.2652 6.47244 89.216 5.95104 89.0805C2.53902 88.2018 0.899745 85.0033 1.30435 81.9608C1.57965 79.8832 2.15944 77.8878 2.82683 75.9046C3.86128 72.8334 4.60375 69.6801 5.47136 66.5596C5.51307 66.4118 5.72163 65.7877 5.92602 65.1759C6.88539 67.9392 7.84476 70.7065 8.80413 73.4698C8.58723 73.556 8.36616 73.6423 8.14926 73.7285C6.96047 74.1842 5.8134 74.7467 4.64964 75.2723C4.29091 75.4324 4.02813 75.7075 4.21166 76.1181C4.39102 76.5164 4.75809 76.5328 5.13766 76.4096C5.24194 76.3768 5.34622 76.3357 5.44633 76.2865C9.42981 74.3936 13.6177 72.9853 17.6345 71.1623C17.8514 71.0637 18.06 70.8913 18.3186 70.9775C18.3186 71.4743 18.2769 71.967 18.3269 72.4515C18.5939 75.2107 19.1153 77.859 21.7306 79.5178C22.1102 79.7601 22.544 80.068 22.9069 79.5999C23.2906 79.1072 22.8568 78.8116 22.4814 78.5529C19.7743 76.6806 19.4615 73.8763 19.4782 70.957C19.4782 70.6983 19.5491 70.493 19.6867 70.3411H19.9036H19.9495C20.1581 70.3534 20.3374 70.3781 20.5085 70.4191C20.7587 73.5848 21.2593 76.6396 24.4377 78.6884C23.6577 79.0621 23.3741 79.7518 22.8694 80.1378C21.9559 80.8399 21.0382 81.5585 20.0413 82.1579C18.3436 83.1803 16.7961 84.4203 15.1193 85.4919C12.725 87.0234 10.3224 88.4605 7.51941 89.1339L7.51524 89.138ZM16.1579 90.6859C15.8201 89.7046 15.3612 88.2962 14.9942 87.2082C15.1944 87.085 15.3946 86.9659 15.5948 86.8387C18.0391 85.2825 20.2415 83.4143 22.6775 81.8377C23.495 81.308 23.6869 80.3308 24.5629 79.8586C25.2261 79.5014 25.5639 79.214 25.6056 78.8855C25.7725 78.8732 25.9435 78.8362 26.0978 78.8034C26.1688 78.787 26.2397 78.7746 26.3022 78.7623C27.7163 78.5119 29.3931 78.1957 31.0949 77.7358C32.9302 77.239 34.5153 76.6765 35.8459 75.7979C36.7218 78.3271 37.5978 80.8646 38.4737 83.4061C31.0073 85.8409 23.6368 88.2429 16.1663 90.6818L16.1579 90.6859ZM51.6088 62.8889L51.5879 64.482L50.1113 64.4655C50.1113 64.4655 50.0988 64.4409 50.0905 64.4286L48.4804 64.445L46.8703 64.4286C46.8703 64.4286 46.8578 64.4532 46.8495 64.4655L45.3729 64.482L45.352 62.8889L48.4762 62.8519L51.6004 62.8889H51.6088ZM49.6108 47.9228C49.7359 48.2103 49.8652 48.5059 49.9945 48.8138L50.0029 48.8302H49.9862C49.8736 48.8426 49.7735 48.8549 49.6775 48.8631C49.4523 48.8836 49.2771 48.9 49.1061 48.9452C48.7891 49.0273 48.4512 49.0643 48.1259 49.1012C47.471 49.1751 46.7952 49.249 46.2113 49.6966C45.9986 49.8567 45.8984 49.9922 45.8818 50.14C45.8651 50.2796 45.9318 50.4274 46.0903 50.6163C46.3448 50.916 46.5909 51.2363 46.8286 51.5484C47.3041 52.1683 47.8005 52.8089 48.3845 53.3385C49.5983 54.443 49.811 55.4941 49.1603 57.2063C48.593 58.705 48.0091 60.2159 47.4042 61.7351C46.7619 61.7392 46.1237 61.7474 45.4813 61.7598C44.5386 61.7844 44.1966 62.117 44.1674 63.0203C44.1507 63.5746 44.1549 64.1289 44.1507 64.6832C44.1465 65.2046 44.426 65.5002 44.9432 65.5865C45.156 65.6234 45.3687 65.6604 45.5814 65.6563C45.6523 65.6563 45.7191 65.6563 45.79 65.6563C43.767 70.3945 41.4436 75.1163 38.5321 79.563C38.0024 78.0274 37.4727 76.4959 36.9429 74.9603C37.2766 74.6605 37.5894 74.3279 37.8814 73.9625C37.9398 73.8927 37.9982 73.8188 38.0608 73.7449C38.5738 73.1249 39.1495 72.4228 38.7073 71.6961C38.6906 71.6714 38.6823 71.6386 38.6656 71.6139C38.8867 70.5792 39.0994 69.5446 39.308 68.5304V68.5181C39.5457 67.3643 39.7877 66.1736 40.0421 64.9952C41.6939 57.3213 43.3248 49.1177 43.5042 40.5856L43.5125 40.4583C43.5209 40.368 43.5292 40.2735 43.5334 40.1832C43.5334 40.138 43.5417 40.0888 43.5459 40.0395C43.5751 39.8096 43.6085 39.4975 43.2289 39.4154C43.2497 39.2922 43.2664 39.1649 43.2873 39.0418C43.8254 39.1773 44.1424 39.555 44.4761 39.9574C44.6513 40.1709 44.8348 40.3926 45.0517 40.5692C45.2811 40.7539 45.523 40.9387 45.7608 41.1152C46.4198 41.608 47.0997 42.1171 47.5377 42.7658C47.9507 43.3735 48.1801 44.1208 48.4053 44.8434C48.5221 45.217 48.6389 45.603 48.7849 45.9684C49.0393 46.6131 49.3146 47.2536 49.6108 47.9311V47.9228ZM72.0476 40.6472C72.0517 40.6102 72.0559 40.5733 72.0601 40.5363C72.106 40.1298 72.1435 39.7192 72.1811 39.3086V39.284C72.2228 38.8529 72.2645 38.4012 72.3145 37.9619C72.3521 37.6334 72.5565 37.4117 72.8484 37.383C72.8776 37.383 72.9027 37.383 72.9319 37.383C73.3406 37.3953 73.5534 37.6252 73.5867 38.0851C73.545 38.7667 73.4074 39.8014 72.9736 40.836C72.9152 40.9797 72.7734 41.2261 72.5231 41.2466C72.4522 41.2548 72.3729 41.2425 72.2895 41.2138C71.9892 41.1111 72.0184 40.9141 72.0517 40.6472H72.0476ZM69.6575 36.7917C69.8243 36.6316 70.012 36.5413 70.2164 36.5207C70.329 36.5084 70.4417 36.5207 70.5585 36.5536C70.9672 36.6644 71.0215 37.075 71.0256 37.2434C71.059 38.4423 70.9798 39.5098 70.7879 40.4994C70.7545 40.6677 70.6627 40.873 70.4083 40.8976C70.329 40.9058 70.2414 40.8976 70.1497 40.8689C70.304 40.0025 70.2832 39.4729 70.0913 39.1033C69.8952 38.7297 69.5198 38.5162 68.8399 38.3848C68.9359 37.7484 69.2028 37.2269 69.6533 36.7917H69.6575ZM65.382 39.2471C65.4404 38.7379 65.4946 38.2534 65.5697 37.7771C65.9368 35.4491 66.1912 33.0718 66.4332 30.7725L66.4457 30.6411C66.5041 30.1237 66.7251 29.7788 67.1923 29.4832C67.5844 31.647 67.5677 33.8067 67.5469 35.9007C67.5385 36.8287 67.5302 37.7853 67.5594 38.7297C67.3383 38.8324 67.1047 38.9145 66.8586 38.9966C66.3331 39.1773 65.795 39.362 65.3195 39.789C65.3403 39.6043 65.3612 39.4236 65.382 39.2471ZM71.7222 53.3632C69.7367 53.4699 67.8597 53.1579 66.0744 52.2669C65.1818 51.8235 65.1067 51.7413 65.4071 50.7436C68.11 51.4909 70.7337 52.2628 73.4449 51.068C73.8412 52.6857 73.3532 53.2769 71.7181 53.3632H71.7222ZM75.1634 43.2134C75.1634 43.5542 75.1634 43.8662 75.1259 44.1659C74.8589 46.5679 74.0372 48.161 72.5356 49.1792C72.3229 49.323 72.1352 49.4872 71.985 49.6925C71.8766 49.8444 71.7931 50.0374 71.7306 50.2427C70.1372 50.5999 68.5897 50.448 67.088 49.9306C67.0755 49.7582 67.038 49.5939 66.9379 49.4626C66.016 48.1979 65.3779 46.6952 64.9899 44.8763C64.6646 43.353 64.7397 41.8625 65.211 40.5692C65.4154 40.602 65.624 40.6102 65.8367 40.5897C66.3497 40.5404 66.8211 40.3474 67.2757 40.1586C67.7137 39.9779 68.1308 39.8055 68.5688 39.7644C68.7023 39.7521 68.8316 39.7521 68.9567 39.7644C69.0151 40.446 68.769 40.8401 68.11 41.1193C68.0349 41.1522 67.964 41.1809 67.8889 41.2097C67.4509 41.3903 67.0171 41.5669 66.6668 41.8995C66.3998 42.154 66.137 42.503 66.479 42.9177C67.5969 44.2809 68.0224 45.874 67.7346 47.6477C67.6595 48.1035 67.8013 48.3704 68.16 48.4525C68.2435 48.473 68.3185 48.4771 68.3936 48.4689C68.6814 48.4402 68.8858 48.2103 68.94 47.853C69.0193 47.3726 69.0527 46.8964 69.0402 46.4447C68.9943 45.0446 68.598 43.7841 67.8222 42.5893C67.9306 42.54 68.0349 42.4948 68.1433 42.4497C68.6522 42.232 69.1277 42.0309 69.549 41.7147C69.7951 42.0473 70.108 42.1992 70.4876 42.1622C70.6043 42.1499 70.7295 42.1212 70.8588 42.076C70.9464 42.0432 71.0131 42.0309 71.0715 42.0226C71.1841 42.0103 71.2759 42.0391 71.376 42.1171C71.7347 42.3922 72.1393 42.5113 72.5731 42.4702C72.7066 42.4579 72.8443 42.4291 72.9861 42.3881L73.0069 42.3799C73.057 42.3634 73.1071 42.347 73.1571 42.3429C73.2197 42.3388 73.2614 42.3511 73.3031 42.3963C73.691 42.7905 74.1457 42.9547 74.6921 42.9054C74.8423 42.8931 75.0008 42.8603 75.1676 42.811C75.1676 42.9465 75.1676 43.0779 75.1634 43.2051V43.2134ZM75.7558 39.2799C75.6223 40.0395 75.4888 40.8237 74.9215 41.456C74.7922 41.5956 74.6796 41.6695 74.5628 41.6778C74.4877 41.686 74.4126 41.6654 74.3292 41.6203C74.1123 41.5012 74.154 41.3657 74.2208 41.1645C74.2333 41.1235 74.2458 41.0783 74.2583 41.0372L74.3167 40.8114C74.4627 40.2407 74.617 39.6535 74.7338 39.0664C74.788 38.7954 74.9299 38.6599 75.176 38.6353C75.2177 38.6353 75.2594 38.6312 75.3053 38.6353C75.5722 38.6476 75.7182 38.82 75.7766 39.1978L75.7599 39.2799H75.7558Z" fill="#333333"/>
<path d="M34.6196 26.6954C34.7698 26.72 34.9241 26.7241 35.0701 26.7282H35.116C35.1535 26.7282 35.191 26.7282 35.2328 26.7282C35.4163 26.7282 35.5581 26.7077 35.6832 26.6707C35.9085 26.5968 36.0128 26.4942 35.9711 26.3751C35.946 26.3094 35.8668 26.2643 35.7833 26.2191L35.7625 26.2068C35.6791 26.1575 35.5873 26.1205 35.5164 26.0959C35.4622 26.0754 35.4038 26.059 35.3454 26.0425C35.2703 26.022 35.1994 26.0015 35.1368 25.9686C35.0242 25.9153 34.9283 25.8413 34.8573 25.751C34.8073 25.6812 34.7781 25.6196 34.7739 25.558C34.7698 25.4513 34.8365 25.3404 34.8949 25.246C34.9575 25.1392 35.0159 25.0243 35.0701 24.9052C35.2369 24.6219 35.2828 24.3632 35.191 24.1949C35.1243 24.0717 34.9908 23.9937 34.8323 23.9855C34.6696 23.9855 34.6029 24.0799 34.5403 24.1661L34.2942 24.5028C34.2275 24.5973 34.1566 24.6917 34.094 24.7861C34.044 24.8641 33.9939 24.9463 33.948 25.0243C33.9063 25.0941 33.8688 25.1598 33.8146 25.2419C33.727 25.3774 33.6394 25.517 33.606 25.6812C33.5601 25.9153 33.6477 26.1616 33.8479 26.3546C34.069 26.564 34.386 26.6502 34.6154 26.6872L34.6196 26.6954Z" fill="#333333"/>
<path d="M41.1058 18.8367C41.5646 18.7751 42.0067 18.8367 42.4405 18.9927C42.7117 19.0912 43.0078 19.0912 43.1663 18.7915C43.3457 18.4548 43.1413 18.2249 42.8785 18.0401C42.4489 17.7363 41.9567 17.6583 41.4436 17.6542C41.3185 17.6542 41.1934 17.6501 41.064 17.6542C40.6052 17.6788 40.1464 17.7897 40.1798 18.344C40.2131 18.8777 40.6678 18.8942 41.1016 18.8367H41.1058Z" fill="#333333"/>
<path d="M29.902 17.7321C29.122 17.5679 28.3461 17.5884 27.6495 18.0483C27.3784 18.2248 27.1949 18.4712 27.3784 18.8037C27.5411 19.0994 27.8331 19.0912 28.1084 18.9967C28.4921 18.8612 28.88 18.7791 29.3806 18.8366C29.4431 18.8407 29.5933 18.8653 29.7435 18.8612C30.0521 18.8571 30.2899 18.7257 30.3483 18.4096C30.415 18.0606 30.2232 17.8019 29.902 17.7321Z" fill="#333333"/>
<path d="M38.0108 29.7666C37.3142 29.6762 36.5717 29.6393 35.5998 29.6393H35.1118C34.2525 29.6475 33.3641 29.6557 32.4965 29.7666C32.1377 29.8117 31.9125 29.9226 31.8166 30.1032C31.7164 30.2798 31.7456 30.5097 31.9083 30.8218C32.6007 32.1357 33.7395 32.9897 35.1952 33.2853L35.2536 33.2976L35.3162 33.2853C36.7719 32.9897 37.9065 32.1357 38.6031 30.8218C38.7657 30.5097 38.7949 30.2839 38.6948 30.1032C38.5989 29.9226 38.3737 29.8117 38.0149 29.7666H38.0108ZM35.2578 32.07C34.4152 32.0166 33.656 31.5362 33.118 30.7027C33.8729 30.6288 34.5737 30.5877 35.2536 30.5795C35.9377 30.5877 36.6384 30.6288 37.3934 30.7027C36.8553 31.5362 36.0962 32.0207 35.262 32.07H35.2578Z" fill="#333333"/>
<path d="M42.4489 22.7618L42.4697 22.729C42.8118 22.1665 42.7158 21.7764 42.5782 21.5465C42.378 21.218 41.9525 21.0127 41.4645 21.0127C41.014 21.0127 40.6177 21.1892 40.4008 21.489L40.3883 21.5095L40.2298 21.9447L40.2381 21.9899C40.3591 22.6797 40.8138 23.0944 41.4561 23.0944C41.7773 23.0944 42.1193 22.9876 42.4155 22.7906L42.4489 22.77V22.7618Z" fill="#333333"/>
<path d="M30.0646 21.489C29.8477 21.1892 29.4515 21.0127 29.001 21.0127C28.513 21.0127 28.0875 21.218 27.8873 21.5465C27.7496 21.7764 27.6537 22.1665 27.9957 22.729L28.0166 22.7618L28.05 22.7823C28.3461 22.9794 28.6882 23.0862 29.0093 23.0862C29.6517 23.0862 30.1064 22.6715 30.2273 21.9817L30.2357 21.9365L30.0772 21.5013L30.0646 21.4808V21.489Z" fill="#333333"/>
<path d="M50.2365 41.2302C49.7109 40.1216 49.6024 38.8611 49.4314 37.6663C49.2604 36.4797 49.0268 35.3218 48.4762 34.242C48.0132 33.3387 47.3917 32.382 46.4615 31.9098C46.5324 31.7989 46.6075 31.6881 46.6743 31.5731C46.9079 31.1789 47.1206 30.7684 47.3083 30.3537C47.5002 29.9266 47.667 29.4914 47.813 29.048C47.8672 28.8796 47.9173 28.7113 47.9673 28.5429C48.3803 28.2309 49.0685 28.0831 49.7943 27.923C50.2782 27.8162 50.7829 27.7094 51.225 27.5452C53.0353 26.4613 53.5651 24.4986 53.1521 23.2012C52.906 22.421 52.3387 21.8873 51.5545 21.6697C51.809 21.0086 51.8966 20.2942 51.9466 19.588C52.0342 18.3603 52.0134 17.0875 51.8841 15.8064C51.3335 10.4236 48.8183 4.92165 43.8754 2.34314C43.0328 1.90381 41.9233 1.39468 40.9389 1.52607C40.7637 1.53428 40.5885 1.55891 40.4175 1.59176C40.2048 1.4111 39.9754 1.25097 39.7209 1.15654C31.7957 -1.89005 23.4324 2.8687 20.0204 10.0623C19.8828 10.3579 19.7493 10.6535 19.6242 10.9573C18.8817 12.7639 18.4312 14.6855 18.3228 16.6317C18.2685 17.6253 18.3019 18.6231 18.4312 19.6126C18.523 20.2983 18.523 21.0825 18.8442 21.7189C18.1225 21.9571 17.6011 22.4662 17.3634 23.2094C16.9504 24.5068 17.4843 26.4695 19.2905 27.5534C19.7368 27.7177 20.2373 27.8285 20.7212 27.9312C21.447 28.0913 22.1352 28.2391 22.5482 28.5512C22.5732 28.5717 22.5857 28.6826 22.594 28.7154C22.6107 28.7729 22.6274 28.8304 22.6441 28.8837C22.6775 28.9946 22.715 29.1096 22.7525 29.2204C22.8276 29.4421 22.9111 29.6598 22.9986 29.8774C23.1697 30.3044 23.3657 30.7232 23.5868 31.1297C23.8037 31.5321 24.0414 31.9221 24.3001 32.2957C24.5587 32.6735 24.8423 33.0348 25.1426 33.3797C25.4471 33.7287 25.7725 34.0613 26.1103 34.3774C26.4607 34.7018 26.8236 35.0056 27.2032 35.2931C27.5953 35.5887 28.0041 35.8638 28.4212 36.1225C28.855 36.3893 29.3055 36.6398 29.7601 36.8697C30.2398 37.1079 30.7278 37.3296 31.22 37.5308C31.7414 37.7402 32.267 37.9332 32.8009 38.1056C33.3599 38.2863 33.9271 38.4505 34.4986 38.5942C34.6196 38.6271 34.7447 38.6435 34.8657 38.6804C34.9866 38.7215 35.1243 38.7338 35.2494 38.7379C35.4163 38.7461 35.5539 38.7092 35.7082 38.664C35.8709 38.6147 36.0336 38.5819 36.1963 38.5367C36.4841 38.4628 36.7677 38.3807 37.0555 38.2986C37.6019 38.1344 38.1484 37.9537 38.6823 37.7566C39.1912 37.5677 39.6959 37.3583 40.1881 37.1284C40.6594 36.9108 41.1224 36.6726 41.5729 36.414C41.7106 36.336 41.8482 36.2497 41.9817 36.1676C42.1944 36.7096 42.3905 37.2557 42.5823 37.8059C42.7033 38.1549 42.8576 38.5162 42.9953 38.8816C43.5 38.9596 43.9004 39.1773 44.2842 39.592C44.5511 39.8835 44.7931 40.1955 45.0308 40.5117C45.7399 40.9264 46.3865 41.3903 46.9954 41.9446C48.3845 43.2051 49.9445 44.1988 51.5045 45.2376C52.2595 45.7426 53.0895 44.6299 52.4639 44.014C51.6129 43.1764 50.737 42.3183 50.2198 41.2302H50.2365ZM40.4884 35.7324C39.9879 36.0116 39.4748 36.2662 38.9534 36.4961C38.4195 36.7342 37.8731 36.9477 37.3183 37.1407C36.9554 37.268 36.5967 37.3748 36.238 37.502C36.0294 37.5759 35.8334 37.6211 35.6332 37.6704C35.362 37.7402 35.0992 37.7032 34.8323 37.6334C34.3651 37.5144 33.9021 37.3707 33.4433 37.2187C32.8843 37.034 32.3379 36.8246 31.7998 36.5946C31.2743 36.3688 30.757 36.1183 30.2523 35.8474C29.7601 35.5846 29.2846 35.2972 28.8216 34.9892C28.3711 34.6895 27.9373 34.3692 27.5202 34.0243C27.1156 33.6918 26.7319 33.3345 26.369 32.9609C26.0186 32.5955 25.6849 32.2095 25.3846 31.803C25.0884 31.4089 24.8173 30.9942 24.5795 30.5631C24.3459 30.1401 24.1415 29.7008 23.9747 29.2451C23.8079 28.7934 23.6744 28.3294 23.5826 27.8573C23.5701 27.7834 23.5534 27.7094 23.5409 27.6355V27.6109L23.5159 27.5986C22.982 27.2619 22.3646 27.1428 21.7681 27.0238C21.2009 26.9129 20.6628 26.8061 20.1956 26.5269C18.7816 25.9234 18.3645 24.6834 18.573 23.7883C18.7566 23.0041 19.3822 22.5155 20.204 22.5155C20.5251 22.5155 20.8755 22.5935 21.2467 22.7372C21.3635 22.8357 21.4887 22.9261 21.6096 22.9959C21.9183 23.1806 22.3438 23.2504 22.6441 23.0123C23.0237 22.7126 22.9361 22.1583 22.9402 21.7395C22.9444 21.1728 22.9569 20.6062 23.0112 20.0396C23.0821 19.2554 23.203 18.4753 23.3198 17.6951C23.3532 17.4652 23.4324 17.2969 23.6952 17.2312C25.347 16.8124 26.8278 16.024 28.3586 15.3342C30.8488 14.2092 33.1888 12.8625 35.3745 11.2694C36.6259 10.3579 37.7438 9.30266 38.9576 8.28439C39.0327 8.38704 39.0702 8.4281 39.0952 8.47327C40.7595 11.9304 42.9035 15.0345 46.3447 17.1819C46.5491 17.3092 46.6534 17.4816 46.6868 17.7075C46.8912 19.0994 47.0205 20.4748 47.0997 21.8791C47.1331 22.4867 47.496 23 48.1425 23.0492C48.4428 23.0698 48.7515 23.0123 49.0185 22.8727C49.0644 22.8481 49.1102 22.8152 49.1561 22.7865C49.5732 22.6058 49.9695 22.5114 50.3324 22.5114C51.1541 22.5114 51.7798 23 51.9633 23.7842C52.1719 24.6793 51.7548 25.9193 50.3407 26.5228C49.8736 26.802 49.3397 26.9088 48.7682 27.0197C48.1717 27.1346 47.5544 27.2578 47.0205 27.5945L46.9996 27.6068V27.6314C46.9162 28.1036 46.7952 28.5717 46.6409 29.0233C46.4824 29.4791 46.2905 29.9266 46.0653 30.3537C45.8359 30.7889 45.5772 31.2077 45.2894 31.6101C44.9933 32.0207 44.6721 32.4107 44.3301 32.7802C43.9755 33.1621 43.5959 33.5234 43.1997 33.8601C42.7909 34.2091 42.3613 34.5376 41.9191 34.8414C41.4603 35.1576 40.9889 35.4491 40.5009 35.7201L40.4884 35.7324Z" fill="#333333"/>
<path d="M73.0904 21.411C72.886 21.2344 72.6566 21.2837 72.4605 21.4274C72.0267 21.7395 71.6263 22.0926 71.2884 22.5073C71.1383 22.692 71.1007 22.9137 71.2384 23.1314C71.351 23.312 71.5304 23.3777 71.7765 23.3654C71.8349 23.3408 71.9433 23.3243 72.0142 23.2669C72.4522 22.9055 72.8651 22.5196 73.1488 22.0269C73.2656 21.8216 73.3031 21.5958 73.0946 21.4151L73.0904 21.411Z" fill="#274B66"/>
<path d="M63.8137 22.3923C63.4675 21.9283 63.067 21.5013 62.5665 21.1893C62.2245 20.9758 61.8783 21.1893 61.8908 21.6327C61.92 21.7025 61.9659 21.8421 62.0409 21.9612C62.2954 22.3718 62.6332 22.7249 62.9878 23.0493C63.2172 23.2587 63.4925 23.2915 63.7428 23.0821C63.9764 22.885 63.9847 22.6181 63.8137 22.3923Z" fill="#274B66"/>
<path d="M69.4614 19.5757C69.207 19.51 69.061 19.662 68.9525 19.8549C68.6898 20.3353 68.5813 20.865 68.4687 21.3536C68.4687 21.6738 68.5605 21.9038 68.8608 21.9736C69.1611 22.0475 69.3863 21.9038 69.4865 21.641C69.6867 21.1195 69.7534 20.5652 69.7659 20.011C69.7701 19.8098 69.6783 19.6332 69.4573 19.5757H69.4614Z" fill="#274B66"/>
<path d="M66.2997 19.9575C66.2204 19.7153 66.0911 19.4525 65.7616 19.5059C65.407 19.5675 65.4029 19.8672 65.3945 20.2285C65.4404 20.5529 65.4863 20.9635 65.5614 21.3659C65.6239 21.7066 65.8075 21.9858 66.2163 21.9243C66.6334 21.8586 66.7043 21.5342 66.6334 21.1934C66.5458 20.7746 66.4332 20.3599 66.2997 19.9534V19.9575Z" fill="#274B66"/>
</svg>
