<svg width="128" height="24" viewBox="0 0 128 24" fill="none" xmlns="http://www.w3.org/2000/svg">
<path d="M12 0L14.7649 8.19438L23.4127 8.2918L16.4738 13.4536L19.0534 21.7082L12 16.704L4.94658 21.7082L7.52623 13.4536L0.587322 8.2918L9.23506 8.19438L12 0Z" fill="#FFF388"/>
<path d="M38 0L40.7649 8.19438L49.4127 8.2918L42.4738 13.4536L45.0534 21.7082L38 16.704L30.9466 21.7082L33.5262 13.4536L26.5873 8.2918L35.2351 8.19438L38 0Z" fill="#FFF388"/>
<path d="M64 0L66.7649 8.19438L75.4127 8.2918L68.4738 13.4536L71.0534 21.7082L64 16.704L56.9466 21.7082L59.5262 13.4536L52.5873 8.2918L61.2351 8.19438L64 0Z" fill="#FFF388"/>
<path d="M90 0L92.7649 8.19438L101.413 8.2918L94.4738 13.4536L97.0534 21.7082L90 16.704L82.9466 21.7082L85.5262 13.4536L78.5873 8.2918L87.2351 8.19438L90 0Z" fill="#FFF388"/>
<path d="M116 0L118.765 8.19438L127.413 8.2918L120.474 13.4536L123.053 21.7082L116 16.704L108.947 21.7082L111.526 13.4536L104.587 8.2918L113.235 8.19438L116 0Z" fill="#E8E7E7"/>
<mask id="mask0_4_649" style="mask-type:alpha" maskUnits="userSpaceOnUse" x="78" y="0" width="24" height="22">
<path d="M90 0L92.7649 8.19438L101.413 8.2918L94.4738 13.4536L97.0534 21.7082L90 16.704L82.9466 21.7082L85.5262 13.4536L78.5873 8.2918L87.2351 8.19438L90 0Z" fill="#FFCF40"/>
</mask>
<g mask="url(#mask0_4_649)">
<rect x="90" width="12" height="22" fill="#E8E7E7"/>
</g>
</svg>
