<?xml version="1.0" encoding="UTF-8"?><svg id="Layer_2" xmlns="http://www.w3.org/2000/svg" viewBox="0 0 499 219.5"><defs><style>.cls-1{fill:#f7f7f7;}.cls-2{fill:#fff;}.cls-3{fill:#ff0;}.cls-4{fill:#ffd62c;}.cls-5{fill:#333;}.cls-6{fill:#332c25;}.cls-7{fill:#191919;}.cls-8{fill:#284b66;}.cls-9{fill:#39b54a;}.cls-10{fill:#5d6c7c;}</style></defs><g id="Layer_1-2"><rect class="cls-1" y="22.5" width="499" height="197" rx="18.01" ry="18.01"/><rect class="cls-9" x="35.5" width="428" height="56"/><path class="cls-3" d="m125.79,31.42l.94,8.06-3.6.39-.89-8-9.72,1.27-.39-3.24,9.75-1.25-.58-4.85-7.92,1.02-.39-3.24,7.95-1.05-.58-5.01,4.4-.17c.03.28-.19.55-.72.69l.42,4.04,7.7-1.02.39,3.3-7.7,1,.55,4.82,9.78-1.22.39,3.21-9.78,1.25Z"/><path class="cls-3" d="m159.83,25.14c-.11.17-.25.22-.44.28-1.19,2.82-2.88,5.4-4.96,7.59-.55-.53-1.52-1.19-2.3-1.61,1.25-1.25,2.69-3.16,3.41-4.6l-5.62,1.22,2.52,11.24-2.82.58-2.49-11.19-5.62,1.3-.64-2.6,5.73-1.25-1.3-5.48,3.63-.39c0,.3-.22.5-.55.67l1.02,4.57,7.98-1.72.28-.17,2.19,1.55Z"/><path class="cls-3" d="m167.5,30.9v-13.63l4.35.22c-.03.3-.28.5-.8.58v12.82h-3.54Zm16.42-14.82c-.03.28-.25.47-.8.55v8.67c0,5.87-1.94,11.33-9.72,14.54-.53-.69-1.83-1.99-2.66-2.58,7.34-2.8,8.78-7.39,8.78-11.99v-9.44l4.4.25Z"/><path class="cls-3" d="m213.16,18.08c-.08.19-.28.33-.55.42-1.25,3.07-3.57,6.7-5.84,8.95-.72-.58-2.19-1.44-3.1-1.88,1.74-1.44,3.38-3.74,4.1-5.46h-17.92v-3.3h19.94l.39-.25,2.99,1.52Zm-10.58,5.37c-.03.28-.3.5-.75.58-.69,6.06-2.99,12.32-8.56,15.68-.75-.61-2.08-1.69-3.02-2.22,5.26-2.82,7.42-8.31,7.81-14.51l4.51.47Z"/><path class="cls-3" d="m240.31,18.08c-.08.19-.28.33-.55.42-1.25,3.07-3.57,6.7-5.84,8.95-.72-.58-2.19-1.44-3.1-1.88,1.74-1.44,3.38-3.74,4.1-5.46h-17.92v-3.3h19.94l.39-.25,2.99,1.52Zm-10.58,5.37c-.03.28-.3.5-.75.58-.69,6.06-2.99,12.32-8.56,15.68-.75-.61-2.08-1.69-3.02-2.22,5.26-2.82,7.42-8.31,7.81-14.51l4.51.47Z"/><path class="cls-3" d="m247.51,22.7c.78,1.66,1.61,4.21,1.97,5.87l-2.69.75c-.36-1.72-1.11-4.15-1.88-5.87l2.6-.75Zm16.12.64c-.08.22-.33.39-.69.36-2.27,8.17-6.56,12.99-12.88,15.54-.36-.55-1.25-1.66-1.88-2.19,5.93-2.22,10.08-6.62,11.94-14.84l3.52,1.14Zm-9.5-1.8c.58,1.69,1.11,4.35,1.33,6.09l-2.83.58c-.22-1.83-.78-4.35-1.36-6.12l2.85-.55Z"/><path class="cls-3" d="m269.38,18.57h17.31l.25-.14,3.07,2.19c-.14.14-.28.28-.5.39-2.46,10.36-7.17,15.37-15.65,18.69-.5-.89-1.52-2.19-2.22-2.91,7.5-2.8,12.19-7.62,13.63-14.84h-15.9v-3.38Zm21.21-4.62c1.66,0,2.99,1.33,2.99,2.99s-1.33,2.99-2.99,2.99-2.99-1.36-2.99-2.99c0-1.72,1.41-2.99,2.99-2.99Zm1.94,2.99c0-1.08-.86-1.94-1.94-1.94s-1.94.86-1.94,1.94.89,1.94,1.94,1.94c1.13,0,1.94-.91,1.94-1.94Z"/><path class="cls-2" d="m316.58,29.43c-.07.02-.11.05-.18.05-.12,0-.23-.05-.32-.12-1.72.51-4,1.24-5.7,1.89.05.46.05.99.05,1.54s0,1.15-.05,1.82l-2.9.21c.07-.85.11-1.79.09-2.46-1.79.9-3.1,2.07-3.1,2.94,0,1.01,1.26,1.43,3.86,1.43,2.02,0,4.25-.07,5.7-.25l.05,2.67c-1.2.14-3.17.16-5.77.16-4.44,0-6.65-.99-6.65-3.84,0-1.84,2.39-3.93,5.63-5.59-.07-.67-.41-1.29-1.1-1.29-1.52,0-3.13.78-5.01,2.92-.55.64-1.4,1.54-2.39,2.51l-2.05-1.98c.97-.83,2.09-1.82,2.81-2.67,1.01-1.17,2.14-3.2,2.58-4.81l-.87.02c-.51,0-2.99.02-3.56,0v-2.6c1.29.07,2.94.07,3.96.07l1.22-.02c.21-.94.34-1.86.48-3.04l3.52.35c-.05.23-.25.39-.58.44-.11.74-.3,1.43-.48,2.14,1.82-.05,4.53-.44,6.99-1.26l.46,2.71c-2.21.71-5.38.99-8.21,1.13-.41,1.22-.8,2.21-1.13,2.69h.02c.83-.64,2.02-1.13,3.15-1.13,1.33,0,2.51.94,2.85,2.69,1.77-.76,3.93-1.54,5.59-2.21l1.06,2.9Z"/><path class="cls-2" d="m342,26.33v2.71h-5.36v11.18h-2.87v-11.18h-5.15v4.71h-4.94v2h-2.58v-14.9h7.52v5.47h5.15v-7.38l3.5.18c-.02.23-.21.37-.62.46v6.74h5.36Zm-16.03,4.88v-7.8h-2.3v7.8h2.3Z"/><path class="cls-2" d="m354.92,31.27c.64-.25,1.33-.39,1.91-.39,1.29,0,2.09.99,2.09,2.18,0,.67-.05,1.47-.05,1.86,0,1.75.97,1.75,2.16,1.75.94,0,2.23-.09,3.24-.28,0,.39-.02.74-.02,1.06,0,1.22.07,1.82.07,1.82-.97.07-2.16.14-3.27.14-.78,0-1.5-.02-2-.09-1.91-.21-2.97-1.36-2.99-2.92,0-.55.05-1.47.05-2.05,0-.71-.32-1.15-.94-1.15-1.06,0-2.44.62-3.79,1.86-1.17,1.17-3.52,3.5-4.16,4.28,0,0-.46-.6-2.18-2.25,2.32-2.18,8.55-7.96,10.42-9.75-1.5.14-5.5.37-7.84.53-.14.21-.18.28-.37.28l-.23-3.1c3.13-.09,8.9-.3,11.34-.51l.41-.25,2.21,2.05c-.16.11-.32.21-.6.18-1.47,1.2-3.59,3.04-5.45,4.74v.02Zm4.35-8.05c-2.34-.67-6.6-1.31-9.43-1.47l.69-2.69c3.06.16,6.83.67,9.47,1.38l-.74,2.78Z"/><path class="cls-2" d="m374.47,28.14c1.26-.55,3.06-.85,4.39-.85,3.5,0,5.91,2.14,5.91,5.75,0,4.12-3.59,6.51-8.6,6.51-2.97,0-5.06-1.36-5.06-3.68,0-1.86,1.89-3.38,4.05-3.38,2.44,0,4.28,1.63,4.67,3.63,1.13-.55,1.91-1.63,1.91-3.06,0-1.98-1.63-3.24-3.96-3.24-3.13,0-6.02,1.31-7.66,2.85-.55.51-1.47,1.43-2.07,2.09l-2.05-2.05c1.63-1.63,7.43-7.13,10.51-9.98-1.13.16-5.11.37-6.94.48-.07.16-.35.3-.55.35l-.25-3.24c2.94,0,9.43-.25,10.95-.51l.34-.16,1.86,2.35c-.14.14-.41.23-.67.25-1.2.87-4.9,4.19-6.78,5.86v.02Zm1.22,8.9c.39,0,1.1-.07,1.4-.14-.16-1.22-1.13-2.09-2.16-2.09-.76,0-1.45.39-1.45,1.06,0,1.08,1.45,1.17,2.21,1.17Z"/><path class="cls-9" d="m130.58,113.61c.32,1.74.63,2.48,1.48,3.37,1.42,1.47,3.53,2.26,6.06,2.26,4.11,0,6.69-2.05,6.69-5.27,0-2.16-1.05-3.85-2.84-4.53-1.21-.42-2.84-.69-4.9-.69s-4.42.11-6.48.32v-9.06c1.79.21,3.53.32,5.58.32,5,0,7.48-1.69,7.48-5.06,0-2.84-2-4.48-5.48-4.48-3.74,0-5.64,1.47-6.43,4.85l-11.38-1.63c1-3.27,1.84-4.85,3.53-6.69,3.21-3.48,8.06-5.27,14.49-5.27,5.74,0,10.48,1.58,13.48,4.48,1.95,1.95,2.95,4.48,2.95,7.48,0,5.58-3,9.06-9.06,10.48,3.21.47,4.95,1.21,6.79,2.79,2.21,2,3.48,4.74,3.48,7.8,0,2.69-.74,5.16-2.11,7.01-1.16,1.58-3,3.05-4.95,3.95-2.74,1.26-7.01,2.05-10.96,2.05-4.74,0-9.48-1.11-12.27-2.95-2.42-1.58-4.27-3.9-5.43-6.79-.32-.74-.53-1.42-.9-2.79l11.17-1.95Z"/><path class="cls-9" d="m171.14,123.04c-1.74-1.74-3.06-3.74-3.85-5.85-1.37-3.74-2.05-7.8-2.05-12.06,0-5.53,1.32-11.27,3.32-14.59,3.21-5.37,8.69-8.32,15.33-8.32,5.11,0,9.59,1.74,12.8,4.9,1.74,1.74,3.06,3.74,3.85,5.85,1.37,3.74,2.05,7.8,2.05,12.11,0,5.53-1.32,11.32-3.32,14.64-3.16,5.27-8.69,8.22-15.38,8.22-5.16,0-9.53-1.69-12.75-4.9Zm4.9-18.33c0,9.43,2.69,14.27,7.9,14.27s7.8-4.74,7.8-14.12-2.74-13.75-7.85-13.75-7.85,5-7.85,13.59Z"/><path class="cls-9" d="m217.23,111.71c0-2.84,0-3.95.11-5.64-2,2.69-2.37,3.16-3.95,4.74-1.05-4.21-1.69-5.95-3.32-9.17,4.32-4.69,7.06-9.06,9.27-14.75,1.05-2.58,1.69-4.79,1.95-6.69l8.22,2.69q-1.53,4.42-4.21,10.53v30.13c0,2.79.1,4.48.32,6.53h-8.69c.21-1.95.32-3.74.32-6.53v-11.85Zm27.13-9.74c.63,4.42,1.63,7.9,3.06,11.17,1,2.21,2.21,4.16,3.58,5.74.42.53,1.32,1.26,1.53,1.26.68,0,1.32-3.32,1.69-9.01,2.79,2.32,4.11,3.16,6.95,4.53-.68,6-1.53,9.17-3.05,11.64-1.21,1.9-2.79,2.84-4.85,2.84-2.69,0-5.32-1.69-8.32-5.32-4.48-5.48-7.37-12.8-8.74-22.44l-4.16.26c-2.63.16-3.69.26-5.32.53l-.05-8.06c1.53.05,1.69.05,2.27.05.84,0,2.74-.05,3.63-.11l2.84-.16q-.21-3.16-.37-9.22c0-1.69-.11-3.11-.32-4.48l8.85-.16c-.21,1.26-.26,2.32-.26,4.48,0,3,.05,5.06.32,8.85l7.37-.42c-1.9-2.84-4.27-5.69-7.01-8.53l6.43-4.32c2.79,2.63,4.69,4.69,7.69,8.53l-5.79,4.21,1.42-.05c3.05-.21,4.58-.37,6.21-.69l.05,8.22c-1-.11-1.53-.11-2.26-.11-1.05,0-1.63,0-3.37.16l-10.01.58Z"/><path class="cls-5" d="m286.77,86.75c1.16-2.05,2.32-4.74,2.74-6.64l9.22.84c-.63,1.74-1.42,3.42-2.69,5.79h14.85c2.58,0,3.95-.05,5.79-.26-.21,2.11-.32,3.74-.32,5.74v30.18c0,3.27-.84,5.06-2.9,6-1.16.58-3.21.84-6,.84-1.11,0-4.06-.11-6.22-.21-.32-3.06-.74-4.85-1.84-7.69,2.37.32,4.9.47,6.69.47s2.21-.26,2.21-1.53v-26.13h-28.81v28.65c0,3.37.05,4.74.32,6.58h-8.64c.26-1.84.32-3.21.32-6.58v-30.55c0-1.95-.05-3.58-.26-5.79,1.79.21,3.16.26,5.74.26h9.8Zm18.59,27.5c0,2,.05,3.11.21,4.27-1.42-.05-2.9-.11-4.06-.11h-11.33v3.42h-8.06c.16-1.47.26-2.79.26-4.48v-16.33c0-1.58-.05-2.53-.21-3.74,1.32.1,2.21.16,3.84.16h15.54c1.69,0,2.74-.05,4-.16-.16,1.21-.21,2.32-.21,3.95v13.01Zm-15.22-3.16h7.43v-6.48h-7.43v6.48Z"/><path class="cls-5" d="m341.81,83.53c-1.32,4.53-2.21,9.43-2.79,14.96-.37,3.27-.53,7.22-.53,12.11,0,0,0,.47.05,1.95.74-2.32,1.53-4.27,2.69-6.48l6.16,3.05c-3.42,5.53-6.37,13.48-6.69,17.96l-8.48.32q-.16-1.11-.74-4.16c-.95-5-1.47-11.11-1.47-16.7s.21-8.27,1.79-19.59c.26-2,.32-2.79.32-4.16l9.69.74Zm2.26,9.17c2.69.47,5.69.74,9.48.74,1.95,0,3.27-.05,4.79-.21-.37-8.95-.37-9.06-.79-10.96l9.38-.11c-.11,1-.16,1.42-.16,2,0,.21,0,.53.05,1,.05,1,.11,3.48.21,7.27,3.06-.42,5.21-.95,7.37-1.79l.47,8.8c-.9.1-1.21.16-3.06.47-1.9.37-2,.42-4.53.69.05,2.53.05,3.06.05,4.27,0,6.74-1.05,12.06-3.11,15.59-2.32,4.06-4.95,6.53-10.32,9.64-2.42-3.06-4.16-4.74-7.22-7.01,5.48-2.37,8.96-5.53,10.48-9.32,1-2.53,1.37-5.64,1.37-11.8v-.63c-2.05.16-3.37.21-5.64.21-2,0-3.69-.05-5.53-.16q-1.74-.11-3.37-.11l.05-8.59Z"/><path class="cls-5" d="m148.85,158.38c1.76.24,3.02.31,6.31.31h19.69c1.88,0,2.16-.04,3.14-.43l3.06,3.29c-.47.71-.55.86-1.1,2.47-2.04,5.84-4.86,10.24-8.71,13.45-2.98,2.51-5.8,4.04-11.18,6.12-1.02-2.31-2.12-3.92-4.39-6.43,4.71-1.21,7.53-2.47,10.35-4.59,2.86-2.12,4.59-4.35,6.04-7.84h-16.98c-3.1,0-3.76.04-6.24.24v-6.59Zm3.25-9.8c1.53.24,2.98.31,5.76.31h12.51c3.1,0,4.78-.08,6.16-.31v6.59c-1.49-.12-3.33-.2-6.04-.2h-12.71c-3.1,0-3.96.04-5.69.2v-6.59Z"/><path class="cls-5" d="m193.28,149.91c4.94,2.9,7.49,4.71,10.78,7.69l-4.63,6.12c-3.41-3.57-6.74-6.16-10.67-8.27l4.51-5.53Zm-4.12,24.35c4-.31,8.12-1.29,11.8-2.82,4.94-2.04,8.47-4.98,11.49-9.69,1.65-2.51,2.71-4.67,3.84-7.69,1.92,2.31,2.82,3.1,5.76,5.26-3.57,7.72-7.29,12.35-12.78,15.88-4.24,2.75-7.96,4.2-15.25,5.88-1.53.35-1.76.39-2.82.71l-2.04-7.53Z"/><path class="cls-5" d="m240.42,153.08c-.43-2.47-.63-3.29-1.02-4.43l7.22-1.1c.04,1.22.24,2.55.55,4.35l.43,2.16,6.12-.94c2.78-.43,3.88-.63,5.61-1.14l1.1,6.59q-1.33.12-5.57.75l-6.12.94.94,4.94,7.25-1.1c2.71-.43,4-.71,5.65-1.21l1.18,6.63q-2.24.24-5.53.71l-7.41,1.14,1.1,5.69c.63,3.37.71,3.76,1.18,5.25l-7.45,1.22c0-1.33-.16-2.47-.71-5.45l-1.02-5.65-7.76,1.21c-2.71.43-2.9.47-5.37,1.1l-1.06-6.67c1.61-.08,3.25-.23,5.61-.63l7.49-1.18-.9-4.94-5.41.86c-3.33.51-4.24.67-5.84,1.1l-1.06-6.71c1.73-.04,3.02-.2,5.76-.63l5.45-.82-.39-2.04Z"/><path class="cls-5" d="m275.94,149.91c4.94,2.9,7.49,4.71,10.78,7.69l-4.63,6.12c-3.41-3.57-6.74-6.16-10.67-8.27l4.51-5.53Zm-4.12,24.35c4-.31,8.12-1.29,11.8-2.82,4.94-2.04,8.47-4.98,11.49-9.69,1.65-2.51,2.71-4.67,3.84-7.69,1.92,2.31,2.82,3.1,5.76,5.26-3.57,7.72-7.29,12.35-12.78,15.88-4.24,2.75-7.96,4.2-15.25,5.88-1.53.35-1.76.39-2.82.71l-2.04-7.53Z"/><path class="cls-5" d="m343.62,156.77c-.27.47-.59,1.37-1.02,2.67-3.73,11.76-10.35,19.06-22.12,24.35-1.14-2.24-2.78-4.35-4.71-6,10.35-3.73,16.75-9.96,19.65-19.1l-10.43.12c-2.43,3.88-5.57,7.29-8.9,9.84-1.88-2.16-3.14-3.25-5.57-4.71,4.51-3.1,7.96-7.06,10.43-11.96,1.02-2.04,1.57-3.57,1.69-4.71l7.41,1.33c-.2.39-.24.43-.47.94-.04.12-.16.35-.27.63-.16.35-.31.71-.35.82-.27.59-.43.98-.47,1.02-.04.12-.16.39-.31.67l8.9-.08h.86c-.63-1.33-1.29-2.43-2.24-3.76l3.88-1.25c1.37,1.8,2.39,3.73,3.25,6l-1.22.43,2,2.75Zm1.45-10.82c1.29,1.73,2.2,3.37,3.25,5.84l-3.73,1.37c-1.1-2.59-2-4.31-3.22-6l3.69-1.22Z"/><polygon class="cls-9" points="63.09 51 81.59 69.5 101.59 49.5 63.09 51"/><path class="cls-7" d="m73.33,134.21c.02.17.02.33,0,.5l.09-.66c-.09.65-.28,1.26-.35,1.92-.05.51-.03.99.04,1.49.09.67.31,1.29.67,1.87.22.35.47.68.64,1.06l-.25-.6c.14.38.23.82.29,1.22l-.09-.66c.01.12.01.23,0,.35l.09-.66c-.02.09-.04.16-.07.24l.25-.6c-.02.05-.05.11-.09.15l.39-.51c-.07.08-.13.15-.21.22l.51-.39c-.22.16-.45.29-.7.4l.6-.25c-.29.12-.59.21-.9.26l.66-.09c-.27.03-.54.04-.81,0l.66.09c-.2-.03-.38-.08-.57-.15l.6.25c-.15-.06-.29-.14-.43-.23l.51.39c-.06-.04-.1-.09-.15-.14l.39.51s-.06-.1-.08-.15l.25.6-.02-.08.09.66c0-.05,0-.1,0-.16l-.09.66c0-.05.02-.11.05-.16l-.25.6c.04-.09.09-.15.15-.23l-.39.51c.07-.08.14-.14.22-.21l-.51.39c.42-.33.89-.59,1.28-.97.25-.25.47-.53.74-.76l-.51.39c.06-.05.13-.1.2-.14l-3.67-1.49c.1.4.27.78.33,1.2l-.09-.66c0,.08.01.16,0,.25l.09-.66s-.01.07-.02.1l.25-.6s-.03.06-.04.08l.39-.51-.03.03.51-.39-.04.02.6-.25s-.06.02-.09.03l.66-.09h-.06c.59.25,1.18.49,1.77.74-.06-.05-.11-.1-.15-.17l.39.51-.05-.09.25.6c-.03-.06-.05-.13-.06-.2l.09.66c-.01-.07-.01-.15,0-.22.04-1.31-1.18-2.56-2.5-2.5-1.39.06-2.45,1.1-2.5,2.5-.05,1.56,1.13,3.17,2.77,3.18,1.21.01,2.4-.85,2.69-2.05.16-.69.1-1.38-.08-2.06-.07-.26-.17-.5-.24-.76-.35-1.49-2.36-2.4-3.67-1.49-.4.28-.78.57-1.11.93-.2.22-.4.44-.64.62l.51-.39c-.36.25-.74.46-1.06.78-.42.41-.75.92-.93,1.48-.34,1.11-.02,2.34.85,3.12,1.33,1.19,3.39,1.43,5.03.81.77-.29,1.57-.67,2.12-1.31.84-.97,1-2.05.78-3.27-.11-.64-.29-1.24-.57-1.83-.23-.48-.59-.89-.81-1.37l.25.6c-.07-.17-.12-.34-.15-.52l.09.66c-.05-.38-.04-.78,0-1.16l-.09.66c.13-.8.44-1.59.35-2.42-.08-.68-.23-1.26-.73-1.77-.43-.43-1.15-.76-1.77-.73s-1.32.24-1.77.73c-.42.46-.81,1.12-.73,1.77h0Z"/><g id="_óùäwó_ñ_ém"><path id="_îí" class="cls-2" d="m38.2,100.18s-3.96,6.58-8.54,10.42c-4.58,3.83-5.75,9.15-5.75,9.15v2.92s-3.27-.17-4.08.22c-.81.39-1.66,1.27-2.09,2.12-.42.85-.97,1.74-.73,2.78.23,1.04,1.62,2.36,2.2,3.09.58.73,1.51,1.54,2.51,1.93,1,.39,1.73.73,2.7.77.98.05,1.49.08,1.88.5.39.42,1.67,4.71,2.4,6.14.73,1.43,1.31,3.54,2.86,5.17,1.54,1.63,2.47,2.67,3.44,3.29.97.62,2.41,1.1,2.36,2.36s-.46,2.26-.73,3.1-.82,1.88-1.38,2.54c-.55.66-4.34,3.28-10.9,5.56s-8.34,2.66-11.62,5.37c-3.28,2.7-5.91,5.68-6.83,9.11-.93,3.44-2.47,14.09-2.78,16.56-.31,2.47-1.59,11.35-1.22,12.16.37.81.99,1,1.45,1.04.46.04,1.08-.23,1.12,1.16.04,1.39-.54,10.29-.54,10.29h93.32l-.46-11.37s2.09.5,2.51-.19c.42-.69.89-1.74.77-3.13-.12-1.39-.93-6.02-.93-6.02,0,0-2.08-16.8-3.3-20.35-1.22-3.55-.99-3.94-3.54-5.87-2.55-1.93-6.53-5.6-9.88-6.91-3.36-1.31-13.09-5.55-13.09-5.55,0,0-1.39.72-2.66-1.59-1.27-2.32-2.12-5.37-2.24-5.75-.12-.39.54-1.51,2.01-2.86,1.47-1.35,2.97-2.16,4.67-4.87,1.7-2.7,2.63-5.41,3.05-7.03.42-1.62.66-2.47,1.99-2.7,1.33-.23,1.87.12,3.61-.58,1.74-.69,4.32-3.61,4.48-5.21.15-1.59.27-3.23-.58-4.05s-1.35-1.29-2.82-1.71c-1.47-.42-3.75.48-3.75.48l-.15-4.56-5.37-5.23s-3.01-.66-7.34-2.55c-4.32-1.89-10.85-7.92-11.97-8.88-1.12-.97-3.24-2.97-4.29-2.43-1.04.54-3.01.42-2.12,2.36s2.59,4.94,2.59,4.94c0,0-4.02-2.32-5.48-3.44-1.47-1.12-4.76-2.7-4.76-2.7Z"/><g id="_ìhÇË"><path class="cls-10" d="m40.12,170.54c.33-.06,10.76,13.78,10.76,13.78l11.27-14.65s-7.55,1-9.92,1-12.11-.13-12.11-.13Z"/><path class="cls-4" d="m94.69,190.11c-.18-1.65-.42-3.33-.77-4.99-.94-4.52-2.63-8.92-5.89-12.24-1.64-1.67-3.6-3-5.58-4.25-2.85-1.8-6.2-2.73-9.2-4.26-2.57-1.31-5.19-2.52-7.37-.47-1.49,1.4-1.44,2.5-2.57,4.19-2.89,4.32-5.56,10.13-9.25,13.81l-2.67,2.74c-.8-.8-2.56-2.41-3.47-3.07-.02-.04-.04-.08-.07-.11-1.51-1.92-2.32-3.41-3.84-5.34-2.02-2.57-4.1-5.48-5.8-8.26-.85-1.39-2.11-3.04-3.12-4.34-.93-1.2-2.56-3.82-3.34-5.1-.43.24-.87.51-1.32.79-.51-.22-1.12-.24-1.75.09-4.79,2.47-9.99,4.69-14.56,7.66-3.01,2.74-5.7,5.84-7.8,9.29-.1.35-.2.71-.29,1.07-.08.09-.14.21-.19.34-1.88,5.25-2.49,10.97-2.99,16.49-.25,2.77-.44,5.55-.62,8.33-.09,1.36-.19,2.92,1.19,3.72,1.08.62,2.32.41,3.5.41,1.37,0,2.71.17,4.04.51.45.11.88.26,1.3.41.24.44.45.89.63,1.39.36-.07.7-.29.88-.59.06.61.11,1.22.16,1.83.16,2.06.26,4.21.46,7.64l73.67.03c-.46-2.65.19-5.63.23-8.27,0-.13.01-.24.03-.36,0-.32.04-.64.15-.94.82-2.19,5.77-1.91,7.68-2.16-.88-5.28-.87-10.67-1.45-16Zm-13.74,6.19c-.2.78-.71,1.13-1.5,1.03-2.98-.38-6.21-.54-9.16.2-1.36.34-2.43-1.07-2.44-2.34-.01-1.34-.02-2.66.2-3.99.2-1.22,1.01-1.26,1.75-.77,1.16-.37,3.04-.21,3.82-.24,1.85-.07,3.71-.04,5.55-.15,1.22-.07,1.99,1.41,2.05,2.43.07,1.3.04,2.56-.28,3.82Z"/></g><g id="_ÉAÉEÉgÉâÉCÉì"><path class="cls-8" d="m25.76,165.34c-1.01.07-1.61.65-1.64,1.54.04.97.64,1.56,1.44,1.57.94,0,1.8-.89,1.71-1.82-.09-.88-.64-1.36-1.5-1.29Z"/><path class="cls-8" d="m16.8,169.56c-.95.06-1.42.59-1.45,1.53.1.91.62,1.51,1.53,1.48.96-.03,1.57-.69,1.52-1.65-.04-.91-.64-1.42-1.6-1.36Z"/><path class="cls-6" d="m80.39,189.07c-2.64.09-5.29.08-7.93.13-1.32.02-2.64,0-3.95.28-.92.19-1.39.68-1.41,1.64-.03,1.65-.16,3.29-.17,4.94,0,1.51.51,2.05,2.04,2.1,1.79.06,3.59.01,5.38.01,2.3-.01,4.63.43,6.92-.11.74-.17,1.41-.46,1.43-1.32.04-2.02.19-4.05-.19-6.06-.21-1.11-.9-1.66-2.12-1.62Zm-.2,6.84h-10.85v-4.45h10.85v4.45Z"/><path class="cls-6" d="m101.06,204.07c-.05-3.66-.9-7.23-1.18-10.88-.38-4.93-.99-9.84-2.18-14.66-.86-3.46-2.17-6.65-4.77-9.24-3.05-3.03-6.69-5.07-10.56-6.8-4.07-1.82-8.26-3.28-12.49-4.66-.3-.1-.63-.2-.92-.18-.05-.15-.12-.31-.23-.45-1.68-2.19-2.69-4.62-2.9-7.38-.04-.5-.36-.92-.96-.98-.55-.03-1.02.38-1.1,1.14-.37,3.36.84,6.21,3.05,8.7.36.41.84.59,1.33.41-2.22,3.26-4.65,6.39-6.51,9.89-.21.4-.53.6-1.02.6-1.93.02-3.83.33-5.77.32-4.37,0-8.74.1-13.1-.29-.86-.08-1.35-.35-1.76-1.08-1.55-2.73-3.22-5.38-5.18-7.85-.4-.51-.81-1.04-1.12-1.62.71.33,1.3-.19,1.76-.76,1.65-2.04,2.57-4.38,2.78-6.75-.02-.46-.03-.69-.05-.91-.07-.8-.04-1.8-1.17-1.77-1.02.03-1.01.98-1.08,1.74-.2,2.24-1.11,4.22-2.41,6.03-.24.34-.48.68-.59,1.02-.19,0-.4.02-.61.08-.22.06-.45.12-.67.19-5.3,1.69-10.52,3.61-15.47,6.15-6.2,3.19-10.72,7.73-12.12,14.95-.92,4.73-1.68,9.47-2.04,14.26-.29,3.83-1.23,7.58-1.19,11.43.02,1.93.35,2.31,2.3,2.56.23.03.47.02.54.15.15,3.72-.5,5.78-.56,9.39-.01.82.29,1.54,1.21,1.57.92.04,1.29-.66,1.29-1.48-.02-2.36.28-3.81.3-5.76.1-.37.1-.76.11-1.14.01-.35.02-.7.03-1.05,0-.35.02-.7.03-1.05,0-.19,0-.38,0-.57,0-.02,0-.04,0-.06,2,.31,4.03.63,6.1.95.16,2.85.01,5.58.3,8.29.1.95.26,1.88,1.44,1.79,1.16-.09,1.21-1.05,1.19-1.99-.13-5.37-.14-10.74-.38-16.1-.25-5.79.23-11.57-.18-17.35-.04-.55-.04-1.11-.29-1.63-.2-.41-.5-.68-.98-.61-.42.05-.66.34-.72.74-.11.68-.24,1.37-.27,2.06-.31,5.69-.37,11.38-.28,17.07.03,1.66,0,3.32,0,5.23-2.89-.47-5.62-.83-8.46-.67,0-.53,0-.89,0-1.26-.02-2.29.75-4.47.9-6.73.37-5.72,1.08-11.39,2.18-17.04.99-5.13,3.58-9.03,7.93-11.86,4.46-2.89,9.39-4.79,14.27-6.78,1.05-.43,2.09-.85,3.1-1.35,1.24,2.45,2.92,4.47,4.19,6.75,1.09,1.96,2.19,3.91,3.51,5.75,2.05,2.86,4.5,5.41,6.52,8.28,1.06,1.5,2.09,3,3.42,4.27,1.09,1.05,1.64,1.04,2.73.03,1.64-1.52,2.74-3.44,4.1-5.17,2.45-3.14,5.25-6.03,7.25-9.49,2.01-3.47,4.19-6.83,6.37-10.41,1.03.51,2.1.93,3.17,1.37,5.04,2.08,10.18,3.99,14.72,7.13,3.52,2.44,5.98,5.6,7.01,9.82.95,3.87,1.46,7.81,1.98,11.75.49,3.76.45,7.57,1.28,11.29.25,1.12.39,2.34.17,3.67-2.84-.25-5.57.22-8.25.58-.34-.55-.2-1.03-.2-1.48,0-4.95.05-9.91-.02-14.86-.03-2.54-.27-5.08-.44-7.62-.04-.51-.18-1.05-.85-1.09-.72-.04-.92.51-1.08,1.06-.07.22-.09.46-.1.68-.07,1.48-.22,2.96-.17,4.44.23,7.78-.11,15.55-.23,23.33-.04,2.22-.13,4.44-.17,6.66-.02.84.33,1.5,1.24,1.53.83.03,1.24-.54,1.32-1.32.09-.92.19-1.84.2-2.77.03-1.98,0-3.96,0-5.98,2.21-.29,4.18-.83,6.25-.88-.04,1.08.03,2.18.12,3.25.02.19.03.38.05.57.02,1.84.28,3.47.26,5.76,0,.78.37,1.41,1.2,1.43.92.02,1.26-.67,1.29-1.49.02-.65.02-1.3-.04-1.94-.32-2.99-.49-4.46-.5-7.55,2.77-.47,2.89-.59,2.85-3.35Zm-50.09-21.01c-2.8-4.04-5.7-7.47-8.43-11.11,5.62.26,11.14.29,17.13-.21-2.96,3.87-5.96,7.22-8.71,11.33Z"/><path class="cls-6" d="m85.12,125.92c-.22-2.25-1.5-3.92-3.28-4.6.7-2.67,1.32-5.5,1.35-8.44,0-.73-.02-1.48-.07-2.23-.3-4.43-1.63-8.95-3.83-13.08-2.22-4.15-5.24-7.73-8.74-10.35-4.15-3.12-9.25-5.09-14.76-5.72-1.05-.12-2.11-.18-3.15-.18-4.02,0-8.05.9-12.34,2.74-2.15.93-4.32,2.86-5.36,4.77-.05.09-.15.14-.25.12-.41-.09-.84-.13-1.27-.13-1.26,0-2.58.36-3.8,1.04-1.38.77-2.67,1.93-4.08,3.65-6.24,7.66-8.34,18.52-5.47,27.95-2,.79-3.13,2.86-3.19,6.34.1,2.03,1.27,4.39,3.77,6.05,1.34.88,2.84,1.39,4.38,1.74.84.19,1.21.58,1.46,1.39.68,2.21,1.44,4.37,2.76,6.33,3.83,5.69,9.03,9.58,15.5,11.74,2.91.97,5.82,1.89,9.08,1.04,3.53-.93,6.87-2.25,9.95-4.09,5.26-3.15,9.21-7.54,11.22-13.41.61-1.79,1.21-3.22,3.38-3.39.66-.05,1.31-.43,1.93-.73,3.41-1.64,5.2-4.81,4.83-8.52Zm-33.63-18.49c-.92-1.79-2.02-3.52-3.02-5.28-.16-.28-.71-1.56.04-1.57.11,0,.2.08.28.15,1.24,1.21,2.32,2.57,3.54,3.81,1.4,1.43,3.06,2.64,4.65,3.86,4.05,3.1,9.08,4.68,14.14,5.48.79.7,1.57,1.4,2.33,2.14.69.67,1.37,1.35,2.03,2.04.47.5.85,1.09.96,1.78.12.73-.18,1.53.14,2.22.02.05.04.09.07.13-.15.24-.2.54-.11.91.32,1.35,1.44.51,2.21.32,2.22-.55,3.82.55,4.03,2.83.24,2.56-.81,4.48-2.96,5.84-1.23.77-2.63,1.11-4.01,1.47-.89.23-1.4.72-1.74,1.6-.83,2.15-1.57,4.35-2.84,6.31-3.59,5.55-8.57,9.31-14.82,11.39-2,.67-4.05,1.48-6.21,1.08-9.87-1.85-17.33-6.9-21.19-16.4-.99-2.44-2.06-4.19-4.92-4.7-2.36-.42-4.01-2.09-4.66-4.48-.4-1.46-.39-2.97.69-4.19.97-1.1,2.24-1.1,3.55-.65.64.22,1.42.65,1.82-.21.12-.26.15-.48.11-.68.12-.22.23-.45.32-.69.21-1.63.44-3.25.46-3.54.07-.91.2-1.67.86-2.33.4-.4.88-.71,1.35-1.01,3.57-2.29,6.79-4.81,8.97-8.57.29-.49.59-1,.88-1.49.07-.12.14-.24.22-.36.22-.31.45-.62.67-.93.2-.27.71-1.33,1.02-1.42.42-.13.95.67,1.21.97,2.56,2.96,5.61,4.98,9.67,4.97"/><path class="cls-7" d="m55,139.87c-2.7,1.25-5.41,1.05-8.12.05-.54-.2-1.15-.81-1.58-.04-.45.81.27,1.27.88,1.64,1.53.91,3.28.93,4.96,1.16,1.65-.16,3.28-.24,4.72-1.1.62-.37,1.33-.79.85-1.63-.45-.8-1.11-.36-1.72-.08Z"/><path class="cls-7" d="m51.09,144.27c-.72.03-1.74-.18-1.76.88-.03,1.06.95,1.1,1.77,1.15.77.04,1.56-.07,1.6-.96.05-1.02-.81-1.11-1.61-1.07Z"/><path class="cls-7" d="m49.84,134.09c.28.05.56.06.84.07h.09c.07,0,.14,0,.21,0,.34,0,.61-.04.84-.13.4-.15.59-.37.53-.61-.04-.13-.19-.23-.34-.33l-.04-.02c-.16-.1-.32-.18-.46-.25-.1-.05-.21-.08-.31-.12-.14-.05-.27-.09-.39-.16-.21-.12-.39-.29-.52-.49-.1-.16-.15-.31-.16-.45,0-.25.12-.5.23-.72.12-.23.22-.48.33-.76.3-.61.38-1.17.22-1.54-.12-.27-.37-.44-.66-.45-.3,0-.43.21-.54.4l-.45.75c-.13.21-.25.42-.37.63-.1.17-.18.35-.27.53-.07.15-.15.3-.23.45l-.02.04c-.16.3-.33.61-.39.97-.09.52.07,1.03.44,1.46.41.46.99.66,1.42.74Z"/><path class="cls-7" d="m41.06,123.5c-.41-.58-1.16-.93-2.02-.93-.93,0-1.74.4-2.11,1.04-.26.45-.43,1.21.22,2.32l.03.05.05.03c.57.39,1.22.6,1.84.6h0c1.21,0,2.08-.81,2.31-2.17v-.07s-.29-.85-.29-.85l-.02-.03Z"/><path class="cls-7" d="m62.92,122.57c-.86,0-1.61.35-2.02.93l-.02.03-.3.85v.07c.24,1.36,1.1,2.17,2.32,2.17h0c.61,0,1.27-.21,1.84-.6l.05-.03.03-.05c.65-1.11.48-1.87.21-2.32-.38-.64-1.19-1.04-2.11-1.04Z"/><path class="cls-7" d="m41.7,118.09c-.51-.65-1.18-1.02-2.17-1.43l-.26-.11c-1.02-.39-2.14-.71-3.37-.37-.8.22-1.18.72-1.08,1.42.07.45.32.78.71.95.2.08.44.12.68.09.8-.08,1.54.03,2.28.33.5.21.99.5,1.49.89.14.11.28.19.42.25.47.19.93.11,1.29-.25.51-.49.51-1.14,0-1.79Z"/><path class="cls-7" d="m65.92,116.07c-1.26-.26-2.37.15-3.5.63-.08.04-.16.07-.24.11-.56.25-1.26.63-1.79,1.28-.77.96-.35,1.6-.03,1.9.38.35.83.43,1.31.21.16-.07.33-.18.5-.32.47-.39.93-.69,1.4-.9.68-.31,1.37-.44,2.11-.39.31.02.58-.02.81-.13.38-.17.62-.51.67-.94.07-.52-.09-1.19-1.23-1.43Z"/></g></g><path class="cls-6" d="m40.37,100.99s4.07,13.64,24.93,12.46c20.87-1.18,11.63-5.05,11.63-5.05l-23.9-18.13-12.66,10.71Z"/><path class="cls-7" d="m22.28,135.7c.2.2.39.41.57.63l-.39-.51c.13.17.24.34.33.54l-.25-.6c.09.22.14.44.18.68l-.09-.66c.1.81.24,1.6.35,2.4l-.09-.66c.07.58.03,1.18.03,1.76,0,.52.07,1.07.01,1.59l.09-.66c-.1.41-.22.68-.23,1.15,0,.53.14,1.06.4,1.52.3.51.77.94,1.28,1.23.79.45,1.77.69,2.67.69,1.25,0,2.49-.52,3.15-1.62.45-.76.5-1.64.31-2.48-.12-.55-.4-1.07-.62-1.59l.25.6c-.2-.49-.23-1-.35-1.51-.15-.61-.43-1.21-.87-1.67-.82-.86-2.19-1.17-3.24-.51-1.34.85-1.73,2.33-1.41,3.82.12.56.41,1.06.51,1.62l-.09-.66c.01.11.02.21,0,.32l.09-.66s-.02.08-.03.11l.25-.6s-.03.06-.05.08l.39-.51-.03.03.51-.39s-.05.03-.08.05l.6-.25s-.06.02-.1.02l.66-.09c-.06,0-.11,0-.17,0l.66.09c-.14-.02-.26-.07-.39-.12l.6.25c-.25-.12-.49-.26-.71-.43l.51.39c-.13-.11-.25-.22-.36-.36l.39.51c-.06-.09-.11-.18-.16-.28l.25.6c-.02-.06-.04-.12-.05-.19l.09.66c-.02-.13-.02-.25,0-.38l-.09.66c.08-.55.26-1.08.35-1.63.14-.84.26-1.68.28-2.53.03-1.31-1.17-2.56-2.5-2.5s-2.47,1.1-2.5,2.5c0,.42-.04.84-.1,1.26l.09-.66c-.07.55-.16,1.1-.31,1.64-.21.77-.33,1.57-.12,2.36.38,1.47,1.67,2.44,3.02,2.96.62.24,1.32.29,1.96.11,1.24-.35,1.98-1.45,2.06-2.69.07-1.01-.47-1.79-.63-2.74l.09.66c-.02-.14-.02-.27,0-.41l-.09.66s.02-.1.04-.14l-.25.6c.03-.07.06-.13.11-.19l-.39.51s.07-.07.11-.11l-.51.39.07-.05h-2.52s.06.03.09.05l-.51-.39s.06.05.08.09l-.39-.51c.04.06.07.12.1.18l-.25-.6c.16.38.2.8.27,1.21.1.59.39,1.13.62,1.68l-.25-.6c.09.23.18.45.22.69l-.09-.66c0,.09.01.16,0,.25l.09-.66s-.02.08-.03.11l.25-.6c-.02.05-.05.1-.08.14l.39-.51s-.07.08-.12.12l.51-.39c-.07.05-.13.08-.2.11l.6-.25c-.1.04-.21.06-.32.08l.66-.09c-.25.03-.5.02-.75,0l.66.09c-.25-.04-.5-.1-.74-.2l.6.25c-.15-.06-.28-.13-.41-.22l.51.39c-.07-.06-.14-.12-.2-.19l.39.51s-.05-.08-.07-.13l.25.6-.03-.12.09.66v-.11c-.02.22-.05.44-.08.66.16-.57.26-1.13.24-1.73-.02-.44-.02-.89-.03-1.33s.02-.93-.03-1.39c-.07-.63-.2-1.25-.3-1.88l.09.66c-.12-.94-.18-1.74-.64-2.58-.31-.58-.78-1.08-1.24-1.55-.91-.94-2.63-.99-3.54,0s-.97,2.53,0,3.54h0Z"/><polygon class="cls-9" points="457.93 165.62 468.46 176.15 458.09 185.93 457.93 165.62"/></g></svg>