<?xml version="1.0" encoding="UTF-8"?><svg id="Layer_2" xmlns="http://www.w3.org/2000/svg" viewBox="0 0 499 219.5"><defs><style>.cls-1{fill:#f7f7f7;}.cls-2{fill:#fff;}.cls-3{fill:#ff0;}.cls-4{fill:#ff983b;}.cls-5{fill:#c2dfff;}.cls-6{fill:#333;}.cls-7{fill:#332c25;}.cls-8{fill:#191919;}.cls-9{fill:#284b66;}.cls-10{fill:#39b54a;}</style></defs><g id="Layer_1-2"><rect class="cls-1" y="22.5" width="499" height="197" rx="18.01" ry="18.01"/><rect class="cls-10" x="35.5" width="428" height="56"/><path class="cls-3" d="m173.12,16.83h10.86v2.82h-24.7v-2.82h10.44v-2.35l4.15.25c-.03.25-.22.44-.75.5v1.61Zm9.8,11.22v9.08c0,3.1-1.47,3.46-5.93,3.46-.08-.64-.33-1.5-.64-2.24h-7.23v1.27h-2.91v-7.53h10.69v5.43c.47,0,.94.03,1.3.03,1.22,0,1.36-.06,1.36-.47v-6.26h-15.84v9.83h-3.24v-12.6h22.43Zm-18.97-7.31h15.29v6.15h-15.29v-6.15Zm11.91,3.91v-1.69h-8.75v1.69h8.75Zm-1.88,11.47v-1.8h-4.85v1.8h4.85Z"/><path class="cls-3" d="m195.97,14.5l3.96.22c-.03.28-.25.44-.72.5v25.4h-3.24v-7.15c-2.05.66-4.02,1.25-5.4,1.66-.03.25-.22.42-.47.5l-1.3-3.68c.58-.11,1.22-.25,1.94-.42v-13.76l3.82.19c-.03.28-.22.44-.72.5v12.35l2.13-.5v-15.81Zm16.4,1.77l2.05.69c-.08.22-.17.42-.3.58-.67,6.34-2.19,11.44-4.62,15.43,1.61,1.99,3.54,3.63,5.9,4.74-.78.66-1.86,1.99-2.38,2.91-2.24-1.19-4.1-2.77-5.65-4.71-1.63,1.94-3.54,3.49-5.76,4.74-.5-.91-1.47-2.27-2.27-2.94,2.3-1.11,4.29-2.77,5.95-4.93-1.94-3.43-3.21-7.62-4.13-12.38l3.05-.55c.67,3.57,1.66,6.87,3.13,9.69,1.47-2.8,2.52-6.12,3.1-9.89h-10.33v-3.27h11.71l.55-.11Z"/><path class="cls-3" d="m224.99,16.08h9.69c0,5.29.75,15.51,11.05,21.57-.75.58-2.1,2.05-2.69,2.91-5.82-3.52-8.81-8.86-10.33-13.9-2.05,6.23-5.4,11.08-10.41,13.99-.58-.72-1.94-1.99-2.8-2.6,5.65-2.85,9.03-8.53,10.55-15.87l1.72.39c-.17-1.08-.3-2.13-.39-3.1h-6.4v-3.38Z"/><path class="cls-2" d="m269.58,29.43c-.07.02-.12.05-.18.05-.11,0-.23-.05-.32-.12-1.72.51-4,1.24-5.7,1.89.05.46.05.99.05,1.54s0,1.15-.05,1.82l-2.9.21c.07-.85.12-1.79.09-2.46-1.79.9-3.1,2.07-3.1,2.94,0,1.01,1.26,1.43,3.86,1.43,2.02,0,4.25-.07,5.7-.25l.05,2.67c-1.2.14-3.17.16-5.77.16-4.44,0-6.65-.99-6.65-3.84,0-1.84,2.39-3.93,5.63-5.59-.07-.67-.41-1.29-1.1-1.29-1.52,0-3.13.78-5.01,2.92-.55.64-1.4,1.54-2.39,2.51l-2.05-1.98c.97-.83,2.09-1.82,2.81-2.67,1.01-1.17,2.14-3.2,2.58-4.81l-.87.02c-.51,0-2.99.02-3.56,0v-2.6c1.29.07,2.94.07,3.96.07l1.22-.02c.21-.94.35-1.86.48-3.04l3.52.35c-.05.23-.25.39-.57.44-.12.74-.3,1.43-.48,2.14,1.82-.05,4.53-.44,6.99-1.26l.46,2.71c-2.21.71-5.38.99-8.21,1.13-.41,1.22-.8,2.21-1.13,2.69h.02c.83-.64,2.02-1.13,3.15-1.13,1.33,0,2.51.94,2.85,2.69,1.77-.76,3.93-1.54,5.59-2.21l1.06,2.9Z"/><path class="cls-2" d="m275.57,20.02h16.19v20.19h-2.94v-1.45h-10.46v1.45h-2.78v-20.19Zm13.25,2.69h-10.46v2.67h10.46v-2.67Zm0,5.27h-10.46v2.76h10.46v-2.76Zm-10.46,8.09h10.46v-2.74h-10.46v2.74Z"/><path class="cls-2" d="m305.65,28.49l.28,2.37c-.83.28-1.66.55-2.48.81v5.56c0,2.48-.94,2.94-4.53,2.94-.09-.69-.44-1.82-.78-2.53.9.05,1.86.05,2.16.05.32-.02.44-.11.44-.44v-4.76l-2.05.62c-.02.23-.21.37-.39.41l-.85-3.13c.9-.18,2.02-.44,3.29-.74v-4.3h-2.94v-2.55h2.94v-4.28l3.33.14c-.02.25-.18.39-.62.46v3.68h2.3v2.55h-2.3v3.66l2.21-.53Zm3.68-3.73c0,.87.23.99,1.66.99h4.23c1.2,0,1.4-.37,1.56-2.64.58.39,1.72.83,2.48.97-.34,3.29-1.15,4.14-3.82,4.14h-4.71c-3.26,0-4.14-.78-4.14-3.43v-6.28l3.36.18c-.02.21-.21.37-.62.41v2.46c2.37-.58,4.78-1.33,6.35-2.07l2.14,2.09c-.09.09-.28.09-.58.09-2.02.83-5.1,1.59-7.91,2.14v.94Zm-2.37,15.45v-10.65h10.85v10.51h-2.74v-.78h-5.52v.92h-2.6Zm8.12-8.32h-5.52v1.43h5.52v-1.43Zm-5.52,5.1h5.52v-1.5h-5.52v1.5Z"/><path class="cls-2" d="m323.32,22.23c1.45-.05,3.47-.07,5.27-.11,1.08-.05,2.71-.09,4.37-.14,0-.34-.05-2.21-.14-3.24l3.79.18c-.02.18-.25.44-.62.51-.02.55,0,1.54.02,2.48,3.01-.09,6.02-.16,7.27-.18v2.71c-.67-.02-1.54-.02-2.53-.02-1.38,0-3.01.02-4.71.07l.14,4.09c.32.92.34,2,.34,2.62,0,1.08-.14,2.28-.48,3.04-.94,2.39-3.04,4.6-6.51,5.89-.48-.69-1.47-1.72-2.14-2.28,2.48-.85,4.37-2.05,5.17-3.47h-.02c-.28.25-.81.44-1.26.44-2.05,0-4.09-1.63-4.09-4.19-.02-2.62,2.14-4.46,4.44-4.46.53,0,1.06.14,1.49.35,0-.23-.05-1.49-.07-1.95-1.7.02-9.29.3-9.66.32l-.07-2.64Zm10.19,8.32c0-.51,0-2.12-1.75-2.12-1.08.02-1.95.8-1.98,2.16,0,1.17.92,1.98,1.89,1.98,1.15,0,1.84-.87,1.84-2.02Z"/><path class="cls-10" d="m118.62,108.61q2.37-2.63,5.06-5.79l11.43-13.38c2.53-2.9,3.53-4.21,4.9-6.27h10.8c-.32,3.11-.42,5.21-.42,8.74v17.12h1.53c1.63,0,3.37-.16,5.21-.42v9.59c-1.58-.21-3.53-.32-5.16-.32h-1.58v2.63c0,2.95.11,4.48.42,6.48h-10.85c.26-1.79.42-4,.42-6.58v-2.58h-14.91c-3.42,0-4.9.05-6.85.21v-9.43Zm21.81-5.58c0-2.37.11-5.27.32-7.58-1.05,1.48-1.84,2.53-3.27,4.32l-7.69,9.38h10.64v-6.11Z"/><path class="cls-10" d="m171.14,123.04c-1.74-1.74-3.05-3.74-3.84-5.85-1.37-3.74-2.05-7.8-2.05-12.06,0-5.53,1.32-11.27,3.32-14.59,3.21-5.37,8.69-8.32,15.33-8.32,5.11,0,9.59,1.74,12.8,4.9,1.74,1.74,3.05,3.74,3.84,5.85,1.37,3.74,2.05,7.8,2.05,12.11,0,5.53-1.32,11.32-3.32,14.64-3.16,5.27-8.69,8.22-15.38,8.22-5.16,0-9.53-1.69-12.75-4.9Zm4.9-18.33c0,9.43,2.69,14.27,7.9,14.27s7.8-4.74,7.8-14.12-2.74-13.75-7.85-13.75-7.85,5-7.85,13.59Z"/><path class="cls-10" d="m217.23,111.71c0-2.84,0-3.95.11-5.64-2,2.69-2.37,3.16-3.95,4.74-1.05-4.21-1.69-5.95-3.32-9.17,4.32-4.69,7.06-9.06,9.27-14.75,1.05-2.58,1.69-4.79,1.95-6.69l8.22,2.69q-1.53,4.42-4.21,10.53v30.13c0,2.79.1,4.48.32,6.53h-8.69c.21-1.95.32-3.74.32-6.53v-11.85Zm27.13-9.74c.63,4.42,1.63,7.9,3.05,11.17,1,2.21,2.21,4.16,3.58,5.74.42.53,1.32,1.26,1.53,1.26.68,0,1.32-3.32,1.69-9.01,2.79,2.32,4.11,3.16,6.95,4.53-.68,6-1.53,9.17-3.05,11.64-1.21,1.9-2.79,2.84-4.85,2.84-2.69,0-5.32-1.69-8.32-5.32-4.48-5.48-7.37-12.8-8.74-22.44l-4.16.26c-2.63.16-3.69.26-5.32.53l-.05-8.06c1.53.05,1.69.05,2.26.05.84,0,2.74-.05,3.63-.11l2.84-.16q-.21-3.16-.37-9.22c0-1.69-.11-3.11-.32-4.48l8.85-.16c-.21,1.26-.26,2.32-.26,4.48,0,3,.05,5.06.32,8.85l7.37-.42c-1.9-2.84-4.27-5.69-7.01-8.53l6.43-4.32c2.79,2.63,4.69,4.69,7.69,8.53l-5.79,4.21,1.42-.05c3.05-.21,4.58-.37,6.21-.69l.05,8.22c-1-.11-1.53-.11-2.26-.11-1.05,0-1.63,0-3.37.16l-10.01.58Z"/><path class="cls-6" d="m286.77,86.75c1.16-2.05,2.32-4.74,2.74-6.64l9.22.84c-.63,1.74-1.42,3.42-2.69,5.79h14.85c2.58,0,3.95-.05,5.79-.26-.21,2.11-.32,3.74-.32,5.74v30.18c0,3.27-.84,5.06-2.9,6-1.16.58-3.21.84-6,.84-1.11,0-4.06-.11-6.22-.21-.32-3.06-.74-4.85-1.84-7.69,2.37.32,4.9.47,6.69.47s2.21-.26,2.21-1.53v-26.13h-28.81v28.65c0,3.37.05,4.74.32,6.58h-8.64c.26-1.84.32-3.21.32-6.58v-30.55c0-1.95-.05-3.58-.26-5.79,1.79.21,3.16.26,5.74.26h9.8Zm18.59,27.5c0,2,.05,3.11.21,4.27-1.42-.05-2.9-.11-4.06-.11h-11.33v3.42h-8.06c.16-1.47.26-2.79.26-4.48v-16.33c0-1.58-.05-2.53-.21-3.74,1.32.1,2.21.16,3.84.16h15.54c1.69,0,2.74-.05,4-.16-.16,1.21-.21,2.32-.21,3.95v13.01Zm-15.22-3.16h7.43v-6.48h-7.43v6.48Z"/><path class="cls-6" d="m341.81,83.53c-1.32,4.53-2.21,9.43-2.79,14.96-.37,3.27-.53,7.22-.53,12.11,0,0,0,.47.05,1.95.74-2.32,1.53-4.27,2.69-6.48l6.16,3.05c-3.42,5.53-6.37,13.48-6.69,17.96l-8.48.32q-.16-1.11-.74-4.16c-.95-5-1.47-11.11-1.47-16.7s.21-8.27,1.79-19.59c.26-2,.32-2.79.32-4.16l9.69.74Zm2.26,9.17c2.69.47,5.69.74,9.48.74,1.95,0,3.27-.05,4.79-.21-.37-8.95-.37-9.06-.79-10.96l9.38-.11c-.11,1-.16,1.42-.16,2,0,.21,0,.53.05,1,.05,1,.11,3.48.21,7.27,3.06-.42,5.21-.95,7.37-1.79l.47,8.8c-.9.1-1.21.16-3.06.47-1.9.37-2,.42-4.53.69.05,2.53.05,3.06.05,4.27,0,6.74-1.05,12.06-3.11,15.59-2.32,4.06-4.95,6.53-10.32,9.64-2.42-3.06-4.16-4.74-7.22-7.01,5.48-2.37,8.96-5.53,10.48-9.32,1-2.53,1.37-5.64,1.37-11.8v-.63c-2.05.16-3.37.21-5.64.21-2,0-3.69-.05-5.53-.16q-1.74-.11-3.37-.11l.05-8.59Z"/><path class="cls-6" d="m148.85,158.38c1.76.24,3.02.31,6.31.31h19.69c1.88,0,2.16-.04,3.14-.43l3.06,3.29c-.47.71-.55.86-1.1,2.47-2.04,5.84-4.86,10.24-8.71,13.45-2.98,2.51-5.8,4.04-11.18,6.12-1.02-2.31-2.12-3.92-4.39-6.43,4.71-1.21,7.53-2.47,10.35-4.59,2.86-2.12,4.59-4.35,6.04-7.84h-16.98c-3.1,0-3.76.04-6.24.24v-6.59Zm3.25-9.8c1.53.24,2.98.31,5.76.31h12.51c3.1,0,4.79-.08,6.16-.31v6.59c-1.49-.12-3.33-.2-6.04-.2h-12.71c-3.1,0-3.96.04-5.69.2v-6.59Z"/><path class="cls-6" d="m193.28,149.91c4.94,2.9,7.49,4.71,10.78,7.69l-4.63,6.12c-3.41-3.57-6.74-6.16-10.67-8.27l4.51-5.53Zm-4.12,24.35c4-.31,8.12-1.29,11.8-2.82,4.94-2.04,8.47-4.98,11.49-9.69,1.65-2.51,2.71-4.67,3.84-7.69,1.92,2.31,2.82,3.1,5.76,5.26-3.57,7.72-7.29,12.35-12.78,15.88-4.24,2.75-7.96,4.2-15.25,5.88-1.53.35-1.76.39-2.82.71l-2.04-7.53Z"/><path class="cls-6" d="m240.42,153.08c-.43-2.47-.63-3.29-1.02-4.43l7.21-1.1c.04,1.22.24,2.55.55,4.35l.43,2.16,6.12-.94c2.78-.43,3.88-.63,5.61-1.14l1.1,6.59q-1.33.12-5.57.75l-6.12.94.94,4.94,7.25-1.1c2.71-.43,4-.71,5.65-1.21l1.18,6.63q-2.24.24-5.53.71l-7.41,1.14,1.1,5.69c.63,3.37.71,3.76,1.18,5.25l-7.45,1.22c0-1.33-.16-2.47-.71-5.45l-1.02-5.65-7.76,1.21c-2.71.43-2.9.47-5.37,1.1l-1.06-6.67c1.61-.08,3.25-.23,5.61-.63l7.49-1.18-.9-4.94-5.41.86c-3.33.51-4.24.67-5.84,1.1l-1.06-6.71c1.73-.04,3.02-.2,5.76-.63l5.45-.82-.39-2.04Z"/><path class="cls-6" d="m275.94,149.91c4.94,2.9,7.49,4.71,10.78,7.69l-4.63,6.12c-3.41-3.57-6.74-6.16-10.67-8.27l4.51-5.53Zm-4.12,24.35c4-.31,8.12-1.29,11.8-2.82,4.94-2.04,8.47-4.98,11.49-9.69,1.65-2.51,2.71-4.67,3.84-7.69,1.92,2.31,2.82,3.1,5.76,5.26-3.57,7.72-7.29,12.35-12.78,15.88-4.24,2.75-7.96,4.2-15.25,5.88-1.53.35-1.76.39-2.82.71l-2.04-7.53Z"/><path class="cls-6" d="m343.62,156.77c-.27.47-.59,1.37-1.02,2.67-3.73,11.76-10.35,19.06-22.12,24.35-1.14-2.24-2.78-4.35-4.71-6,10.35-3.73,16.75-9.96,19.65-19.1l-10.43.12c-2.43,3.88-5.57,7.29-8.9,9.84-1.88-2.16-3.14-3.25-5.57-4.71,4.51-3.1,7.96-7.06,10.43-11.96,1.02-2.04,1.57-3.57,1.69-4.71l7.41,1.33c-.2.39-.24.43-.47.94-.04.12-.16.35-.27.63-.16.35-.31.71-.35.82-.27.59-.43.98-.47,1.02-.04.12-.16.39-.31.67l8.9-.08h.86c-.63-1.33-1.29-2.43-2.24-3.76l3.88-1.25c1.37,1.8,2.39,3.73,3.25,6l-1.22.43,2,2.75Zm1.45-10.82c1.29,1.73,2.2,3.37,3.25,5.84l-3.73,1.37c-1.1-2.59-2-4.31-3.22-6l3.69-1.22Z"/><polygon class="cls-10" points="63.09 51 81.59 69.5 101.59 49.5 63.09 51"/><g id="_óùäwó_ñ_ém"><path id="_îí" class="cls-2" d="m42.13,99.76s-3.96,6.58-8.54,10.42c-4.58,3.83-5.75,9.15-5.75,9.15v2.92s-3.27-.17-4.08.22c-.81.39-1.66,1.27-2.09,2.12-.42.85-.97,1.74-.73,2.78.23,1.04,1.62,2.36,2.2,3.09.58.73,1.51,1.54,2.51,1.93,1,.39,1.73.73,2.7.77.98.05,1.49.08,1.88.5.39.42,1.67,4.71,2.4,6.14.73,1.43,1.31,3.54,2.86,5.17,1.54,1.63,2.47,2.67,3.44,3.29.97.62,2.41,1.1,2.36,2.36s-.46,2.26-.73,3.1-.82,1.88-1.38,2.54c-.55.66-4.34,3.28-10.9,5.56s-8.34,2.66-11.62,5.37c-3.28,2.7-5.91,5.68-6.83,9.11-.93,3.44-2.47,14.09-2.78,16.56-.31,2.47-1.59,11.35-1.22,12.16.37.81.99,1,1.45,1.04.46.04,1.08-.23,1.12,1.16.04,1.39-.54,10.29-.54,10.29h93.32l-.46-11.37s2.09.5,2.51-.19c.42-.69.89-1.74.77-3.13-.12-1.39-.93-6.02-.93-6.02,0,0-2.08-16.8-3.3-20.35-1.22-3.55-.99-3.94-3.54-5.87-2.55-1.93-6.53-5.6-9.88-6.91-3.36-1.31-13.09-5.55-13.09-5.55,0,0-1.39.72-2.66-1.59-1.27-2.32-2.12-5.37-2.24-5.75-.12-.39.54-1.51,2.01-2.86,1.47-1.35,2.97-2.16,4.67-4.87,1.7-2.7,2.63-5.41,3.05-7.03.42-1.62.66-2.47,1.99-2.7,1.33-.23,1.87.12,3.61-.58,1.74-.69,4.32-3.61,4.48-5.21.15-1.59.27-3.23-.58-4.05s-1.35-1.29-2.82-1.71c-1.47-.42-3.75.48-3.75.48l-.15-4.56-5.37-5.23s-3.01-.66-7.34-2.55c-4.32-1.89-10.85-7.92-11.97-8.88-1.12-.97-3.24-2.97-4.29-2.43-1.04.54-3.01.42-2.12,2.36s2.59,4.94,2.59,4.94c0,0-4.02-2.32-5.48-3.44-1.47-1.12-4.76-2.7-4.76-2.7Z"/><g id="_ìhÇË"><path class="cls-5" d="m43.73,170.22c.33-.06,10.76,13.78,10.76,13.78l11.27-14.65s-7.55,1-9.92,1-12.11-.13-12.11-.13Z"/><path class="cls-4" d="m98.31,189.79c-.18-1.65-.42-3.33-.77-4.99-.94-4.52-2.63-8.92-5.89-12.24-1.64-1.67-3.6-3-5.58-4.25-2.85-1.8-6.2-2.73-9.2-4.26-2.57-1.31-5.19-2.52-7.37-.47-1.49,1.4-1.44,2.5-2.57,4.19-2.89,4.32-5.56,10.13-9.25,13.81l-2.67,2.74c-.8-.8-2.56-2.41-3.47-3.07-.02-.04-.04-.08-.07-.11-1.51-1.92-2.32-3.41-3.84-5.34-2.02-2.57-4.1-5.48-5.8-8.26-.85-1.39-2.11-3.04-3.12-4.34-.93-1.2-2.56-3.82-3.34-5.1-.43.24-.87.51-1.32.79-.51-.22-1.12-.24-1.75.09-4.79,2.47-9.99,4.69-14.56,7.66-3.01,2.74-5.7,5.84-7.8,9.29-.1.35-.2.71-.29,1.07-.08.09-.14.21-.19.34-1.88,5.25-2.49,10.97-2.99,16.49-.25,2.77-.44,5.55-.62,8.33-.09,1.36-.19,2.92,1.19,3.72,1.08.62,2.32.41,3.5.41,1.37,0,2.71.17,4.04.51.45.11.88.26,1.3.41.24.44.45.89.63,1.39.36-.07.7-.29.88-.59.06.61.11,1.22.16,1.83.16,2.06.26,4.21.46,7.64l73.67.03c-.46-2.65.19-5.63.23-8.27,0-.13.01-.24.03-.36,0-.32.04-.64.15-.94.82-2.19,5.77-1.91,7.68-2.16-.88-5.28-.87-10.67-1.45-16Zm-13.74,6.19c-.2.78-.71,1.13-1.5,1.03-2.98-.38-6.21-.54-9.16.2-1.36.34-2.43-1.07-2.44-2.34-.01-1.34-.02-2.66.2-3.99.2-1.22,1.01-1.26,1.75-.77,1.16-.37,3.04-.21,3.82-.24,1.85-.07,3.71-.04,5.55-.15,1.22-.07,1.99,1.41,2.05,2.43.07,1.3.04,2.56-.28,3.82Z"/></g><g id="_ÉAÉEÉgÉâÉCÉì"><path class="cls-9" d="m29.38,165.02c-1.01.07-1.61.65-1.64,1.54.04.97.64,1.56,1.44,1.57.94,0,1.8-.89,1.71-1.82-.09-.88-.64-1.36-1.5-1.29Z"/><path class="cls-9" d="m20.41,169.25c-.95.06-1.42.59-1.45,1.53.1.91.62,1.51,1.53,1.48.96-.03,1.57-.69,1.52-1.65-.04-.91-.64-1.42-1.6-1.36Z"/><path class="cls-7" d="m84,188.75c-2.64.09-5.29.08-7.93.13-1.32.02-2.64,0-3.95.28-.92.19-1.39.68-1.41,1.64-.03,1.65-.16,3.29-.17,4.94,0,1.51.51,2.05,2.04,2.1,1.79.06,3.59.01,5.38.01,2.3-.01,4.63.43,6.92-.11.74-.17,1.41-.46,1.43-1.32.04-2.02.19-4.05-.19-6.06-.21-1.11-.9-1.66-2.12-1.62Zm-.2,6.84h-10.85v-4.45h10.85v4.45Z"/><path class="cls-7" d="m104.67,203.75c-.05-3.66-.9-7.23-1.18-10.88-.38-4.93-.99-9.84-2.18-14.66-.86-3.46-2.17-6.65-4.77-9.24-3.05-3.03-6.69-5.07-10.56-6.8-4.07-1.82-8.26-3.28-12.49-4.66-.3-.1-.63-.2-.92-.18-.05-.15-.12-.31-.23-.45-1.68-2.19-2.69-4.62-2.9-7.38-.04-.5-.36-.92-.96-.98-.55-.03-1.02.38-1.1,1.14-.37,3.36.84,6.21,3.05,8.7.36.41.84.59,1.33.41-2.22,3.26-4.65,6.39-6.51,9.89-.21.4-.53.6-1.02.6-1.93.02-3.83.33-5.77.32-4.37,0-8.74.1-13.1-.29-.86-.08-1.35-.35-1.76-1.08-1.55-2.73-3.22-5.38-5.18-7.85-.4-.51-.81-1.04-1.12-1.62.71.33,1.3-.19,1.76-.76,1.65-2.04,2.57-4.38,2.78-6.75-.02-.46-.03-.69-.05-.91-.07-.8-.04-1.8-1.17-1.77-1.02.03-1.01.98-1.08,1.74-.2,2.24-1.11,4.22-2.41,6.03-.24.34-.48.68-.59,1.02-.19,0-.4.02-.61.08-.22.06-.45.12-.67.19-5.3,1.69-10.52,3.61-15.47,6.15-6.2,3.19-10.72,7.73-12.12,14.95-.92,4.73-1.68,9.47-2.04,14.26-.29,3.83-1.23,7.58-1.19,11.43.02,1.93.35,2.31,2.3,2.56.23.03.47.02.54.15.15,3.72-.5,5.78-.56,9.39-.01.82.29,1.54,1.21,1.57.92.04,1.29-.66,1.29-1.48-.02-2.36.28-3.81.3-5.76.1-.37.1-.76.11-1.14.01-.35.02-.7.03-1.05,0-.35.02-.7.03-1.05,0-.19,0-.38,0-.57,0-.02,0-.04,0-.06,2,.31,4.03.63,6.1.95.16,2.85.01,5.58.3,8.29.1.95.26,1.88,1.44,1.79,1.16-.09,1.21-1.05,1.19-1.99-.13-5.37-.14-10.74-.38-16.1-.25-5.79.23-11.57-.18-17.35-.04-.55-.04-1.11-.29-1.63-.2-.41-.5-.68-.98-.61-.42.05-.66.34-.72.74-.11.68-.24,1.37-.27,2.06-.31,5.69-.37,11.38-.28,17.07.03,1.66,0,3.32,0,5.23-2.89-.47-5.62-.83-8.46-.67,0-.53,0-.89,0-1.26-.02-2.29.75-4.47.9-6.73.37-5.72,1.08-11.39,2.18-17.04.99-5.13,3.58-9.03,7.93-11.86,4.46-2.89,9.39-4.79,14.27-6.78,1.05-.43,2.09-.85,3.1-1.35,1.24,2.45,2.92,4.47,4.19,6.75,1.09,1.96,2.19,3.91,3.51,5.75,2.05,2.86,4.5,5.41,6.52,8.28,1.06,1.5,2.09,3,3.42,4.27,1.09,1.05,1.64,1.04,2.73.03,1.64-1.52,2.74-3.44,4.1-5.17,2.45-3.14,5.25-6.03,7.25-9.49,2.01-3.47,4.19-6.83,6.37-10.41,1.03.51,2.1.93,3.17,1.37,5.04,2.08,10.18,3.99,14.72,7.13,3.52,2.44,5.98,5.6,7.01,9.82.95,3.87,1.46,7.81,1.98,11.75.49,3.76.45,7.57,1.28,11.29.25,1.12.39,2.34.17,3.67-2.84-.25-5.57.22-8.25.58-.34-.55-.2-1.03-.2-1.48,0-4.95.05-9.91-.02-14.86-.03-2.54-.27-5.08-.44-7.62-.04-.51-.18-1.05-.85-1.09-.72-.04-.92.51-1.08,1.06-.07.22-.09.46-.1.68-.07,1.48-.22,2.96-.17,4.44.23,7.78-.11,15.55-.23,23.33-.04,2.22-.13,4.44-.17,6.66-.02.84.33,1.5,1.24,1.53.83.03,1.24-.54,1.32-1.32.09-.92.19-1.84.2-2.77.03-1.98,0-3.96,0-5.98,2.21-.29,4.18-.83,6.25-.88-.04,1.08.03,2.18.12,3.25.02.19.03.38.05.57.02,1.84.28,3.47.26,5.76,0,.78.37,1.41,1.2,1.43.92.02,1.26-.67,1.29-1.49.02-.65.02-1.3-.04-1.94-.32-2.99-.49-4.46-.5-7.55,2.77-.47,2.89-.59,2.85-3.35Zm-50.09-21.01c-2.8-4.04-5.7-7.47-8.43-11.11,5.62.26,11.14.29,17.13-.21-2.96,3.87-5.96,7.22-8.71,11.33Z"/><path class="cls-7" d="m88.74,125.6c-.22-2.25-1.5-3.92-3.28-4.6.7-2.67,1.32-5.5,1.35-8.44,0-.73-.02-1.48-.07-2.23-.3-4.43-1.63-8.95-3.83-13.08-2.22-4.15-5.24-7.73-8.74-10.35-4.15-3.12-9.25-5.09-14.76-5.72-1.05-.12-2.11-.18-3.15-.18-4.02,0-8.05.9-12.34,2.74-2.15.93-4.32,2.86-5.36,4.77-.05.09-.15.14-.25.12-.41-.09-.84-.13-1.27-.13-1.26,0-2.58.36-3.8,1.04-1.38.77-2.67,1.93-4.08,3.65-6.24,7.66-8.34,18.52-5.47,27.95-2,.79-3.13,2.86-3.19,6.34.1,2.03,1.27,4.39,3.77,6.05,1.34.88,2.84,1.39,4.38,1.74.84.19,1.21.58,1.46,1.39.68,2.21,1.44,4.37,2.76,6.33,3.83,5.69,9.03,9.58,15.5,11.74,2.91.97,5.82,1.89,9.08,1.04,3.53-.93,6.87-2.25,9.95-4.09,5.26-3.15,9.21-7.54,11.22-13.41.61-1.79,1.21-3.22,3.38-3.39.66-.05,1.31-.43,1.93-.73,3.41-1.64,5.2-4.81,4.83-8.52Zm-5.33,6.18c-1.23.77-2.63,1.11-4.01,1.47-.89.23-1.4.72-1.74,1.6-.83,2.15-1.57,4.35-2.84,6.31-3.59,5.55-8.57,9.31-14.82,11.39-2,.67-4.05,1.48-6.21,1.08-9.87-1.85-17.33-6.9-21.19-16.4-.99-2.44-2.06-4.19-4.92-4.7-2.36-.42-4.01-2.09-4.66-4.48-.4-1.46-.39-2.97.69-4.19.97-1.1,2.24-1.1,3.55-.65.64.22,1.42.65,1.82-.21.12-.26.15-.48.11-.68.12-.22.23-.45.32-.69.21-1.63.44-3.25.46-3.54.07-.91.2-1.67.86-2.33.4-.4.88-.71,1.35-1.01,3.57-2.29,6.79-4.81,8.97-8.57.29-.49.59-1,.88-1.49.07-.12.14-.24.22-.36.22-.31.45-.62.67-.93.2-.27.71-1.33,1.02-1.42.42-.13.95.67,1.21.97,2.56,2.96,5.61,4.98,9.67,4.97.22,0,.49.07.53-.13.04-.17-.19-.53-.26-.68-.92-1.79-2.02-3.52-3.02-5.28-.16-.28-.71-1.56.04-1.57.11,0,.2.08.28.15,1.24,1.21,2.32,2.57,3.54,3.81,1.4,1.43,3.06,2.64,4.65,3.86,4.05,3.1,9.08,4.68,14.14,5.48.79.7,1.57,1.4,2.33,2.14.69.67,1.37,1.35,2.03,2.04.47.5.85,1.09.96,1.78.12.73-.18,1.53.14,2.22.02.05.04.09.07.13-.15.24-.2.54-.11.91.32,1.35,1.44.51,2.21.32,2.22-.55,3.82.55,4.03,2.83.24,2.56-.81,4.48-2.96,5.84Z"/><path class="cls-8" d="m58.61,141.64c-2.7,1.25-5.41,1.05-8.12.05-.54-.2-1.15-.81-1.58-.04-.45.81.27,1.27.88,1.64,1.53.91,3.28.93,4.96,1.16,1.65-.16,3.28-.24,4.72-1.1.62-.37,1.33-.79.85-1.63-.45-.8-1.11-.36-1.72-.08Z"/><path class="cls-8" d="m54.71,146.04c-.72.03-1.74-.18-1.76.88-.03,1.06.95,1.1,1.77,1.15.77.04,1.56-.07,1.6-.96.05-1.02-.81-1.11-1.61-1.07Z"/><path class="cls-8" d="m53.46,135.44c.28.05.56.06.84.07h.09c.07,0,.14,0,.21,0,.34,0,.61-.04.84-.13.4-.15.59-.37.53-.61-.04-.13-.19-.23-.34-.33l-.04-.02c-.16-.1-.32-.18-.46-.25-.1-.05-.21-.08-.31-.12-.14-.05-.27-.09-.39-.16-.21-.12-.39-.29-.52-.49-.1-.16-.15-.31-.16-.45,0-.25.12-.5.23-.72.12-.23.22-.48.33-.76.3-.61.38-1.17.22-1.54-.12-.27-.37-.44-.66-.45-.3,0-.43.21-.54.4l-.45.75c-.13.21-.25.42-.37.63-.1.17-.18.35-.27.53-.07.15-.15.3-.23.45l-.02.04c-.16.3-.33.61-.39.97-.09.52.07,1.03.44,1.46.41.46.99.66,1.42.74Z"/><path class="cls-8" d="m44.26,123.32c-.36-.51-1.02-.81-1.77-.81-.81,0-1.52.35-1.85.91-.23.39-.38,1.06.19,2.03l.03.04.04.03c.5.34,1.07.53,1.61.53h0c1.06,0,1.82-.71,2.02-1.9v-.06s-.25-.74-.25-.74l-.02-.03Z"/><path class="cls-8" d="m67.09,122.5c-.75,0-1.41.3-1.77.81l-.02.03-.26.74v.06c.21,1.19.97,1.9,2.03,1.9h0c.54,0,1.11-.19,1.61-.53l.04-.03.03-.04c.57-.97.42-1.64.19-2.03-.33-.56-1.04-.91-1.85-.91Z"/><path class="cls-8" d="m45.1,116.55c-.72-.41-1.48-.49-2.55-.49h-.28c-1.1.03-2.25.16-3.26.95-.65.5-.81,1.12-.45,1.73.23.39.6.6,1.02.6.22,0,.45-.06.66-.17.71-.38,1.44-.56,2.23-.56.54,0,1.1.08,1.72.26.17.05.33.07.49.07.51,0,.9-.26,1.1-.72.28-.65.03-1.25-.68-1.66Z"/><path class="cls-8" d="m70.12,116.94c-1.04-.76-2.22-.85-3.45-.88-.09,0-.18,0-.27,0-.61,0-1.41.05-2.15.42-1.1.55-.98,1.31-.82,1.71.2.48.58.73,1.1.73.18,0,.37-.03.59-.09.59-.16,1.13-.24,1.64-.24.75,0,1.43.17,2.08.52.27.15.54.22.79.22.41,0,.77-.21,1-.58.28-.45.41-1.12-.53-1.81Z"/></g></g><polygon class="cls-10" points="457.93 165.99 468.46 176.52 458.09 186.3 457.93 165.99"/></g></svg>